M48
; DRILL file {KiCad (6.0.1)} date Mon Apr 25 15:25:12 2022
; FORMAT={-:-/ absolute / inch / decimal}
; #@! TF.CreationDate,2022-04-25T15:25:12-05:00
; #@! TF.GenerationSoftware,Kicad,Pcbnew,(6.0.1)
; #@! TF.FileFunction,Plated,1,4,PTH
FMAT,2
INCH
; #@! TA.AperFunction,Plated,PTH,ViaDrill
T1C0.0118
; #@! TA.AperFunction,Plated,PTH,ViaDrill
T2C0.0157
; #@! TA.AperFunction,Plated,PTH,ComponentDrill
T3C0.0197
; #@! TA.AperFunction,Plated,PTH,ComponentDrill
T4C0.0217
; #@! TA.AperFunction,Plated,PTH,ComponentDrill
T5C0.0295
; #@! TA.AperFunction,Plated,PTH,ComponentDrill
T6C0.0394
; #@! TA.AperFunction,Plated,PTH,ComponentDrill
T7C0.0472
; #@! TA.AperFunction,Plated,PTH,ComponentDrill
T8C0.1181
; #@! TA.AperFunction,Plated,PTH,ComponentDrill
T9C0.1260
%
G90
G05
T1
X4.2918Y-4.2227
X4.2979Y-3.8328
X4.4305Y-3.7699
X4.4603Y-3.8349
X4.4904Y-4.2815
X4.5124Y-3.7885
X4.5141Y-4.0832
X4.5715Y-4.3481
X4.578Y-4.2609
X4.5855Y-3.8533
X4.6104Y-4.524
X4.6119Y-4.2893
X4.6232Y-4.335
X4.6311Y-4.4731
X4.6441Y-3.9148
X4.6569Y-4.178
X4.7026Y-3.9974
X4.7095Y-4.1396
X4.7142Y-3.5191
X4.7261Y-4.3981
X4.7374Y-4.1918
X4.7436Y-3.8521
X4.7477Y-3.9758
X4.7877Y-4.3813
X4.8487Y-3.7078
X4.8691Y-4.3136
X4.8886Y-4.0832
X4.8894Y-4.4092
X4.8913Y-4.1659
X4.9073Y-4.523
X4.9221Y-3.6134
X4.9222Y-3.7078
X4.9381Y-3.9161
X4.9406Y-4.3122
X4.9724Y-3.6445
X5.0008Y-4.5232
X5.0128Y-4.418
X5.0744Y-3.7078
X5.1112Y-3.7078
X5.1281Y-4.2788
X5.139Y-3.7078
X5.1512Y-4.3035
X5.1516Y-4.157
X5.1537Y-4.5232
X5.1762Y-4.1425
X5.1978Y-3.8739
X5.1992Y-3.5194
X5.2092Y-4.3067
X5.239Y-4.2586
X5.2721Y-4.2946
X5.3131Y-3.913
X5.3131Y-3.9406
X5.3513Y-4.1813
X5.3539Y-3.654
X5.4263Y-3.8385
X5.4381Y-3.686
X5.4559Y-3.638
X5.4834Y-3.6391
X5.4939Y-4.44
X5.5295Y-3.9112
X5.6392Y-3.8934
X5.7098Y-4.2064
X5.7877Y-4.2935
X5.7945Y-3.7078
X5.7967Y-4.1851
X5.8534Y-4.1581
X5.9437Y-3.5802
X6.0709Y-3.5312
X6.1539Y-4.4562
X6.2302Y-3.7629
X6.2687Y-3.9876
X6.2694Y-3.6012
X6.3155Y-4.0107
X6.4226Y-4.0079
X6.4353Y-3.7879
X6.5037Y-3.6529
X6.5082Y-4.5064
X6.5099Y-4.2778
X6.5944Y-4.2781
X6.6485Y-4.503
X6.6874Y-3.7629
X6.7236Y-3.6535
X7.2018Y-4.5058
X7.2021Y-4.3354
X7.3319Y-3.7764
X7.3368Y-4.3392
X7.4133Y-3.7447
T2
X4.4971Y-3.7353
X4.5076Y-3.6733
X4.7098Y-3.6592
T3
X4.2733Y-3.5608
X4.2737Y-4.4525
X4.301Y-3.4939
X4.301Y-3.6276
X4.3014Y-4.3857
X4.3014Y-4.5193
X4.3678Y-3.4663
X4.3678Y-3.6553
X4.3682Y-4.358
X4.3682Y-4.547
X4.4346Y-3.4939
X4.4346Y-3.6276
X4.435Y-4.3857
X4.435Y-4.5193
X4.4623Y-3.5608
X4.4627Y-4.4525
X7.5087Y-4.4534
X7.523Y-3.5524
X7.5364Y-4.3865
X7.5364Y-4.5202
X7.5489Y-3.4897
X7.5489Y-3.615
X7.6032Y-4.3589
X7.6032Y-4.5479
X7.6115Y-3.4638
X7.6115Y-3.641
X7.67Y-4.3865
X7.67Y-4.5202
X7.6742Y-3.4897
X7.6742Y-3.615
X7.6977Y-4.4534
X7.7001Y-3.5524
T5
X4.3581Y-3.9769
X4.3581Y-4.0556
T6
X4.985Y-3.4873
X5.085Y-3.4873
T7
X6.231Y-3.8656
X6.2347Y-4.1886
X6.3688Y-3.8656
X6.3725Y-4.1886
X6.5066Y-3.8656
X6.5103Y-4.1886
X6.6444Y-3.8656
X6.6481Y-4.1886
X6.7822Y-3.8656
X6.7859Y-4.1886
X6.92Y-3.8656
X6.9237Y-4.1886
X7.0578Y-3.8656
X7.0615Y-4.1886
X7.1956Y-3.8656
X7.1993Y-4.1886
X7.3334Y-3.8656
X7.3371Y-4.1886
X7.5989Y-3.9375
X7.5989Y-4.0753
T8
X7.6115Y-3.5524
T9
X4.3678Y-3.5608
X4.3682Y-4.4525
X7.6032Y-4.4534
T3
G00X5.3194Y-3.4915
M15
G01X5.3194Y-3.4659
M16
G05
G00X5.595Y-3.4915
M15
G01X5.595Y-3.4659
M16
G05
T4
G00X5.3647Y-3.585
M15
G01X5.3528Y-3.585
M16
G05
G00X5.5615Y-3.585
M15
G01X5.5497Y-3.585
M16
G05
T0
M30
