%TF.GenerationSoftware,KiCad,Pcbnew,(6.0.1)*%
%TF.CreationDate,2022-04-25T15:24:58-05:00*%
%TF.ProjectId,Airbrake Controller,41697262-7261-46b6-9520-436f6e74726f,rev?*%
%TF.SameCoordinates,Original*%
%TF.FileFunction,Paste,Top*%
%TF.FilePolarity,Positive*%
%FSLAX46Y46*%
G04 Gerber Fmt 4.6, Leading zero omitted, Abs format (unit mm)*
G04 Created by KiCad (PCBNEW (6.0.1)) date 2022-04-25 15:24:58*
%MOMM*%
%LPD*%
G01*
G04 APERTURE LIST*
G04 Aperture macros list*
%AMRoundRect*
0 Rectangle with rounded corners*
0 $1 Rounding radius*
0 $2 $3 $4 $5 $6 $7 $8 $9 X,Y pos of 4 corners*
0 Add a 4 corners polygon primitive as box body*
4,1,4,$2,$3,$4,$5,$6,$7,$8,$9,$2,$3,0*
0 Add four circle primitives for the rounded corners*
1,1,$1+$1,$2,$3*
1,1,$1+$1,$4,$5*
1,1,$1+$1,$6,$7*
1,1,$1+$1,$8,$9*
0 Add four rect primitives between the rounded corners*
20,1,$1+$1,$2,$3,$4,$5,0*
20,1,$1+$1,$4,$5,$6,$7,0*
20,1,$1+$1,$6,$7,$8,$9,0*
20,1,$1+$1,$8,$9,$2,$3,0*%
G04 Aperture macros list end*
%ADD10RoundRect,0.150000X0.650000X0.150000X-0.650000X0.150000X-0.650000X-0.150000X0.650000X-0.150000X0*%
%ADD11RoundRect,0.243750X-0.243750X-0.456250X0.243750X-0.456250X0.243750X0.456250X-0.243750X0.456250X0*%
%ADD12RoundRect,0.243750X0.243750X0.456250X-0.243750X0.456250X-0.243750X-0.456250X0.243750X-0.456250X0*%
%ADD13R,1.200000X1.400000*%
%ADD14RoundRect,0.243750X0.456250X-0.243750X0.456250X0.243750X-0.456250X0.243750X-0.456250X-0.243750X0*%
%ADD15R,4.000000X1.200000*%
%ADD16RoundRect,0.150000X-0.512500X-0.150000X0.512500X-0.150000X0.512500X0.150000X-0.512500X0.150000X0*%
%ADD17RoundRect,0.075000X-0.700000X-0.075000X0.700000X-0.075000X0.700000X0.075000X-0.700000X0.075000X0*%
%ADD18RoundRect,0.075000X-0.075000X-0.700000X0.075000X-0.700000X0.075000X0.700000X-0.075000X0.700000X0*%
%ADD19O,0.890000X1.550000*%
%ADD20O,1.250000X0.950000*%
%ADD21R,0.400000X1.350000*%
%ADD22R,1.500000X1.550000*%
%ADD23R,1.200000X1.550000*%
G04 APERTURE END LIST*
D10*
%TO.C,U2*%
X125895922Y-114869838D03*
X125895922Y-113599838D03*
X125895922Y-112329838D03*
X125895922Y-111059838D03*
X118695922Y-111059838D03*
X118695922Y-112329838D03*
X118695922Y-113599838D03*
X118695922Y-114869838D03*
%TD*%
D11*
%TO.C,D1*%
X110244223Y-97404776D03*
X112119223Y-97404776D03*
%TD*%
D12*
%TO.C,D3*%
X149686104Y-90940910D03*
X147811104Y-90940910D03*
%TD*%
D13*
%TO.C,Y1*%
X116078198Y-101040139D03*
X116078198Y-103240139D03*
X117778198Y-103240139D03*
X117778198Y-101040139D03*
%TD*%
D14*
%TO.C,D2*%
X137239183Y-106311435D03*
X137239183Y-104436435D03*
%TD*%
D15*
%TO.C,BZ1*%
X148320374Y-107464544D03*
X148320374Y-96264544D03*
%TD*%
D16*
%TO.C,U1*%
X115970080Y-92955010D03*
X115970080Y-93905010D03*
X115970080Y-94855010D03*
X118245080Y-94855010D03*
X118245080Y-92955010D03*
%TD*%
D17*
%TO.C,U3*%
X121928812Y-97884272D03*
X121928812Y-98384272D03*
X121928812Y-98884272D03*
X121928812Y-99384272D03*
X121928812Y-99884272D03*
X121928812Y-100384272D03*
X121928812Y-100884272D03*
X121928812Y-101384272D03*
X121928812Y-101884272D03*
X121928812Y-102384272D03*
X121928812Y-102884272D03*
X121928812Y-103384272D03*
X121928812Y-103884272D03*
X121928812Y-104384272D03*
X121928812Y-104884272D03*
X121928812Y-105384272D03*
D18*
X123853812Y-107309272D03*
X124353812Y-107309272D03*
X124853812Y-107309272D03*
X125353812Y-107309272D03*
X125853812Y-107309272D03*
X126353812Y-107309272D03*
X126853812Y-107309272D03*
X127353812Y-107309272D03*
X127853812Y-107309272D03*
X128353812Y-107309272D03*
X128853812Y-107309272D03*
X129353812Y-107309272D03*
X129853812Y-107309272D03*
X130353812Y-107309272D03*
X130853812Y-107309272D03*
X131353812Y-107309272D03*
D17*
X133278812Y-105384272D03*
X133278812Y-104884272D03*
X133278812Y-104384272D03*
X133278812Y-103884272D03*
X133278812Y-103384272D03*
X133278812Y-102884272D03*
X133278812Y-102384272D03*
X133278812Y-101884272D03*
X133278812Y-101384272D03*
X133278812Y-100884272D03*
X133278812Y-100384272D03*
X133278812Y-99884272D03*
X133278812Y-99384272D03*
X133278812Y-98884272D03*
X133278812Y-98384272D03*
X133278812Y-97884272D03*
D18*
X131353812Y-95959272D03*
X130853812Y-95959272D03*
X130353812Y-95959272D03*
X129853812Y-95959272D03*
X129353812Y-95959272D03*
X128853812Y-95959272D03*
X128353812Y-95959272D03*
X127853812Y-95959272D03*
X127353812Y-95959272D03*
X126853812Y-95959272D03*
X126353812Y-95959272D03*
X125853812Y-95959272D03*
X125353812Y-95959272D03*
X124853812Y-95959272D03*
X124353812Y-95959272D03*
X123853812Y-95959272D03*
%TD*%
D19*
%TO.C,J3*%
X142112258Y-88359857D03*
X135112258Y-88359857D03*
D20*
X141112258Y-91059857D03*
X136112258Y-91059857D03*
D21*
X139912258Y-91059857D03*
X139262258Y-91059857D03*
X138612258Y-91059857D03*
X137962258Y-91059857D03*
X137312258Y-91059857D03*
D22*
X139612258Y-88359857D03*
D23*
X135712258Y-88359857D03*
X141512258Y-88359857D03*
D22*
X137612258Y-88359857D03*
%TD*%
M02*
