%TF.GenerationSoftware,KiCad,Pcbnew,(6.0.1)*%
%TF.CreationDate,2022-04-25T15:24:58-05:00*%
%TF.ProjectId,Airbrake Controller,41697262-7261-46b6-9520-436f6e74726f,rev?*%
%TF.SameCoordinates,Original*%
%TF.FileFunction,Paste,Bot*%
%TF.FilePolarity,Positive*%
%FSLAX46Y46*%
G04 Gerber Fmt 4.6, Leading zero omitted, Abs format (unit mm)*
G04 Created by KiCad (PCBNEW (6.0.1)) date 2022-04-25 15:24:58*
%MOMM*%
%LPD*%
G01*
G04 APERTURE LIST*
G04 Aperture macros list*
%AMRoundRect*
0 Rectangle with rounded corners*
0 $1 Rounding radius*
0 $2 $3 $4 $5 $6 $7 $8 $9 X,Y pos of 4 corners*
0 Add a 4 corners polygon primitive as box body*
4,1,4,$2,$3,$4,$5,$6,$7,$8,$9,$2,$3,0*
0 Add four circle primitives for the rounded corners*
1,1,$1+$1,$2,$3*
1,1,$1+$1,$4,$5*
1,1,$1+$1,$6,$7*
1,1,$1+$1,$8,$9*
0 Add four rect primitives between the rounded corners*
20,1,$1+$1,$2,$3,$4,$5,0*
20,1,$1+$1,$4,$5,$6,$7,0*
20,1,$1+$1,$6,$7,$8,$9,0*
20,1,$1+$1,$8,$9,$2,$3,0*%
G04 Aperture macros list end*
%ADD10RoundRect,0.150000X0.587500X0.150000X-0.587500X0.150000X-0.587500X-0.150000X0.587500X-0.150000X0*%
%ADD11RoundRect,0.250000X-0.450000X0.262500X-0.450000X-0.262500X0.450000X-0.262500X0.450000X0.262500X0*%
%ADD12RoundRect,0.250000X-0.475000X0.250000X-0.475000X-0.250000X0.475000X-0.250000X0.475000X0.250000X0*%
%ADD13RoundRect,0.250000X-0.262500X-0.450000X0.262500X-0.450000X0.262500X0.450000X-0.262500X0.450000X0*%
%ADD14RoundRect,0.250000X0.475000X-0.250000X0.475000X0.250000X-0.475000X0.250000X-0.475000X-0.250000X0*%
%ADD15RoundRect,0.250000X0.450000X-0.262500X0.450000X0.262500X-0.450000X0.262500X-0.450000X-0.262500X0*%
%ADD16RoundRect,0.250000X0.250000X0.475000X-0.250000X0.475000X-0.250000X-0.475000X0.250000X-0.475000X0*%
%ADD17RoundRect,0.250000X-0.250000X-0.475000X0.250000X-0.475000X0.250000X0.475000X-0.250000X0.475000X0*%
%ADD18RoundRect,0.150000X-0.150000X0.587500X-0.150000X-0.587500X0.150000X-0.587500X0.150000X0.587500X0*%
%ADD19RoundRect,0.250000X0.262500X0.450000X-0.262500X0.450000X-0.262500X-0.450000X0.262500X-0.450000X0*%
%ADD20R,0.850000X1.100000*%
%ADD21R,0.750000X1.100000*%
%ADD22R,1.200000X1.000000*%
%ADD23R,1.170000X1.800000*%
%ADD24R,1.900000X1.350000*%
%ADD25R,1.550000X1.350000*%
%ADD26RoundRect,0.250000X-0.450000X0.350000X-0.450000X-0.350000X0.450000X-0.350000X0.450000X0.350000X0*%
G04 APERTURE END LIST*
D10*
%TO.C,Q3*%
X168127833Y-91842835D03*
X168127833Y-93742835D03*
X166252833Y-92792835D03*
%TD*%
D11*
%TO.C,R6*%
X116648613Y-111666014D03*
X116648613Y-113491014D03*
%TD*%
D12*
%TO.C,C10*%
X139074637Y-97457660D03*
X139074637Y-99357660D03*
%TD*%
D11*
%TO.C,R9*%
X139542932Y-108950993D03*
X139542932Y-110775993D03*
%TD*%
D13*
%TO.C,R10*%
X152350719Y-90936241D03*
X154175719Y-90936241D03*
%TD*%
D14*
%TO.C,C1*%
X120809307Y-114915412D03*
X120809307Y-113015412D03*
%TD*%
D15*
%TO.C,R14*%
X174332642Y-90196916D03*
X174332642Y-88371916D03*
%TD*%
D16*
%TO.C,C17*%
X112113459Y-107240058D03*
X110213459Y-107240058D03*
%TD*%
D17*
%TO.C,C8*%
X119742731Y-99999562D03*
X121642731Y-99999562D03*
%TD*%
D15*
%TO.C,R12*%
X168866150Y-113418105D03*
X168866150Y-111593105D03*
%TD*%
%TO.C,R15*%
X169274777Y-90186348D03*
X169274777Y-88361348D03*
%TD*%
D16*
%TO.C,C9*%
X132335699Y-110581768D03*
X130435699Y-110581768D03*
%TD*%
D10*
%TO.C,Q4*%
X161823395Y-91686342D03*
X161823395Y-93586342D03*
X159948395Y-92636342D03*
%TD*%
D17*
%TO.C,C11*%
X120422760Y-103291550D03*
X122322760Y-103291550D03*
%TD*%
D16*
%TO.C,C7*%
X125568409Y-110617952D03*
X123668409Y-110617952D03*
%TD*%
D15*
%TO.C,R3*%
X121865237Y-108356138D03*
X121865237Y-106531138D03*
%TD*%
D18*
%TO.C,Q1*%
X142301138Y-95617578D03*
X144201138Y-95617578D03*
X143251138Y-97492578D03*
%TD*%
D15*
%TO.C,R13*%
X165350390Y-113418105D03*
X165350390Y-111593105D03*
%TD*%
D16*
%TO.C,C14*%
X119378441Y-97882304D03*
X117478441Y-97882304D03*
%TD*%
D15*
%TO.C,R7*%
X132072880Y-92312283D03*
X132072880Y-90487283D03*
%TD*%
D17*
%TO.C,C6*%
X124471372Y-100915923D03*
X126371372Y-100915923D03*
%TD*%
D19*
%TO.C,R4*%
X119990971Y-108954598D03*
X118165971Y-108954598D03*
%TD*%
D12*
%TO.C,C15*%
X118524620Y-105170573D03*
X118524620Y-107070573D03*
%TD*%
D19*
%TO.C,R1*%
X129572413Y-114881528D03*
X127747413Y-114881528D03*
%TD*%
%TO.C,R8*%
X129446535Y-92475243D03*
X127621535Y-92475243D03*
%TD*%
D15*
%TO.C,R16*%
X163861823Y-90090082D03*
X163861823Y-88265082D03*
%TD*%
%TO.C,R11*%
X182886261Y-113338603D03*
X182886261Y-111513603D03*
%TD*%
D17*
%TO.C,C5*%
X186415664Y-93697416D03*
X188315664Y-93697416D03*
%TD*%
D20*
%TO.C,J4*%
X151457692Y-104348988D03*
X150357692Y-104348988D03*
X149257692Y-104348988D03*
X148157692Y-104348988D03*
X147057692Y-104348988D03*
X145957692Y-104348988D03*
X144857692Y-104348988D03*
D21*
X143807692Y-104348988D03*
D22*
X154092692Y-110498988D03*
X154092692Y-114198988D03*
D23*
X142597692Y-104698988D03*
D24*
X150592692Y-115173988D03*
X144622692Y-115173988D03*
D25*
X153917692Y-104473988D03*
%TD*%
D17*
%TO.C,C12*%
X123137945Y-93013319D03*
X125037945Y-93013319D03*
%TD*%
D14*
%TO.C,C4*%
X118214628Y-91288153D03*
X118214628Y-89388153D03*
%TD*%
D12*
%TO.C,C16*%
X116267841Y-105186579D03*
X116267841Y-107086579D03*
%TD*%
%TO.C,C13*%
X128420820Y-110352536D03*
X128420820Y-112252536D03*
%TD*%
D14*
%TO.C,C3*%
X122985083Y-114864517D03*
X122985083Y-112964517D03*
%TD*%
D12*
%TO.C,C2*%
X115974602Y-94010186D03*
X115974602Y-95910186D03*
%TD*%
D13*
%TO.C,R2*%
X138148145Y-95469164D03*
X139973145Y-95469164D03*
%TD*%
D10*
%TO.C,Q2*%
X173745007Y-91842835D03*
X173745007Y-93742835D03*
X171870007Y-92792835D03*
%TD*%
D26*
%TO.C,FB1*%
X114059077Y-105232612D03*
X114059077Y-107232612D03*
%TD*%
D13*
%TO.C,R5*%
X110271687Y-97347545D03*
X112096687Y-97347545D03*
%TD*%
M02*
