%TF.GenerationSoftware,KiCad,Pcbnew,(6.0.1)*%
%TF.CreationDate,2022-04-25T15:24:58-05:00*%
%TF.ProjectId,Airbrake Controller,41697262-7261-46b6-9520-436f6e74726f,rev?*%
%TF.SameCoordinates,Original*%
%TF.FileFunction,Legend,Bot*%
%TF.FilePolarity,Positive*%
%FSLAX46Y46*%
G04 Gerber Fmt 4.6, Leading zero omitted, Abs format (unit mm)*
G04 Created by KiCad (PCBNEW (6.0.1)) date 2022-04-25 15:24:58*
%MOMM*%
%LPD*%
G01*
G04 APERTURE LIST*
%ADD10C,0.150000*%
%ADD11C,0.120000*%
G04 APERTURE END LIST*
D10*
X181930301Y-101986346D02*
X181930301Y-100986346D01*
X181692205Y-100986346D01*
X181549348Y-101033966D01*
X181454110Y-101129204D01*
X181406491Y-101224442D01*
X181358872Y-101414918D01*
X181358872Y-101557775D01*
X181406491Y-101748251D01*
X181454110Y-101843489D01*
X181549348Y-101938727D01*
X181692205Y-101986346D01*
X181930301Y-101986346D01*
X181025539Y-101319680D02*
X180787444Y-101986346D01*
X180549348Y-101319680D02*
X180787444Y-101986346D01*
X180882682Y-102224442D01*
X180930301Y-102272061D01*
X181025539Y-102319680D01*
X180025539Y-101986346D02*
X180120777Y-101938727D01*
X180168396Y-101843489D01*
X180168396Y-100986346D01*
X179216015Y-101986346D02*
X179216015Y-101462537D01*
X179263634Y-101367299D01*
X179358872Y-101319680D01*
X179549348Y-101319680D01*
X179644586Y-101367299D01*
X179216015Y-101938727D02*
X179311253Y-101986346D01*
X179549348Y-101986346D01*
X179644586Y-101938727D01*
X179692205Y-101843489D01*
X179692205Y-101748251D01*
X179644586Y-101653013D01*
X179549348Y-101605394D01*
X179311253Y-101605394D01*
X179216015Y-101557775D01*
X178739824Y-101319680D02*
X178739824Y-101986346D01*
X178739824Y-101414918D02*
X178692205Y-101367299D01*
X178596967Y-101319680D01*
X178454110Y-101319680D01*
X178358872Y-101367299D01*
X178311253Y-101462537D01*
X178311253Y-101986346D01*
X176549348Y-101033966D02*
X176644586Y-100986346D01*
X176787444Y-100986346D01*
X176930301Y-101033966D01*
X177025539Y-101129204D01*
X177073158Y-101224442D01*
X177120777Y-101414918D01*
X177120777Y-101557775D01*
X177073158Y-101748251D01*
X177025539Y-101843489D01*
X176930301Y-101938727D01*
X176787444Y-101986346D01*
X176692205Y-101986346D01*
X176549348Y-101938727D01*
X176501729Y-101891108D01*
X176501729Y-101557775D01*
X176692205Y-101557775D01*
X175930301Y-101986346D02*
X176025539Y-101938727D01*
X176073158Y-101891108D01*
X176120777Y-101795870D01*
X176120777Y-101510156D01*
X176073158Y-101414918D01*
X176025539Y-101367299D01*
X175930301Y-101319680D01*
X175787444Y-101319680D01*
X175692205Y-101367299D01*
X175644586Y-101414918D01*
X175596967Y-101510156D01*
X175596967Y-101795870D01*
X175644586Y-101891108D01*
X175692205Y-101938727D01*
X175787444Y-101986346D01*
X175930301Y-101986346D01*
X175168396Y-101986346D02*
X175168396Y-101319680D01*
X175168396Y-101510156D02*
X175120777Y-101414918D01*
X175073158Y-101367299D01*
X174977920Y-101319680D01*
X174882682Y-101319680D01*
X174168396Y-101938727D02*
X174263634Y-101986346D01*
X174454110Y-101986346D01*
X174549348Y-101938727D01*
X174596967Y-101843489D01*
X174596967Y-101462537D01*
X174549348Y-101367299D01*
X174454110Y-101319680D01*
X174263634Y-101319680D01*
X174168396Y-101367299D01*
X174120777Y-101462537D01*
X174120777Y-101557775D01*
X174596967Y-101653013D01*
X172501729Y-101319680D02*
X172501729Y-101986346D01*
X172739824Y-100938727D02*
X172977920Y-101653013D01*
X172358872Y-101653013D01*
X171263634Y-100938727D02*
X172120777Y-102224442D01*
X170977920Y-101081585D02*
X170930301Y-101033966D01*
X170835063Y-100986346D01*
X170596967Y-100986346D01*
X170501729Y-101033966D01*
X170454110Y-101081585D01*
X170406491Y-101176823D01*
X170406491Y-101272061D01*
X170454110Y-101414918D01*
X171025539Y-101986346D01*
X170406491Y-101986346D01*
X169549348Y-101319680D02*
X169549348Y-101986346D01*
X169787444Y-100938727D02*
X170025539Y-101653013D01*
X169406491Y-101653013D01*
X168311253Y-100938727D02*
X169168396Y-102224442D01*
X168025539Y-101081585D02*
X167977920Y-101033966D01*
X167882682Y-100986346D01*
X167644586Y-100986346D01*
X167549348Y-101033966D01*
X167501729Y-101081585D01*
X167454110Y-101176823D01*
X167454110Y-101272061D01*
X167501729Y-101414918D01*
X168073158Y-101986346D01*
X167454110Y-101986346D01*
X166835063Y-100986346D02*
X166739824Y-100986346D01*
X166644586Y-101033966D01*
X166596967Y-101081585D01*
X166549348Y-101176823D01*
X166501729Y-101367299D01*
X166501729Y-101605394D01*
X166549348Y-101795870D01*
X166596967Y-101891108D01*
X166644586Y-101938727D01*
X166739824Y-101986346D01*
X166835063Y-101986346D01*
X166930301Y-101938727D01*
X166977920Y-101891108D01*
X167025539Y-101795870D01*
X167073158Y-101605394D01*
X167073158Y-101367299D01*
X167025539Y-101176823D01*
X166977920Y-101081585D01*
X166930301Y-101033966D01*
X166835063Y-100986346D01*
X166120777Y-101081585D02*
X166073158Y-101033966D01*
X165977920Y-100986346D01*
X165739824Y-100986346D01*
X165644586Y-101033966D01*
X165596967Y-101081585D01*
X165549348Y-101176823D01*
X165549348Y-101272061D01*
X165596967Y-101414918D01*
X166168396Y-101986346D01*
X165549348Y-101986346D01*
X165168396Y-101081585D02*
X165120777Y-101033966D01*
X165025539Y-100986346D01*
X164787444Y-100986346D01*
X164692205Y-101033966D01*
X164644586Y-101081585D01*
X164596967Y-101176823D01*
X164596967Y-101272061D01*
X164644586Y-101414918D01*
X165216015Y-101986346D01*
X164596967Y-101986346D01*
X176620777Y-103310632D02*
X176144586Y-103310632D01*
X176716015Y-103596346D02*
X176382682Y-102596346D01*
X176049348Y-103596346D01*
X175858872Y-102929680D02*
X175477920Y-102929680D01*
X175716015Y-102596346D02*
X175716015Y-103453489D01*
X175668396Y-103548727D01*
X175573158Y-103596346D01*
X175477920Y-103596346D01*
X175144586Y-103596346D02*
X175144586Y-102596346D01*
X174716015Y-103596346D02*
X174716015Y-103072537D01*
X174763634Y-102977299D01*
X174858872Y-102929680D01*
X175001729Y-102929680D01*
X175096967Y-102977299D01*
X175144586Y-103024918D01*
X173858872Y-103548727D02*
X173954110Y-103596346D01*
X174144586Y-103596346D01*
X174239824Y-103548727D01*
X174287444Y-103453489D01*
X174287444Y-103072537D01*
X174239824Y-102977299D01*
X174144586Y-102929680D01*
X173954110Y-102929680D01*
X173858872Y-102977299D01*
X173811253Y-103072537D01*
X173811253Y-103167775D01*
X174287444Y-103263013D01*
X173382682Y-102929680D02*
X173382682Y-103596346D01*
X173382682Y-103024918D02*
X173335063Y-102977299D01*
X173239824Y-102929680D01*
X173096967Y-102929680D01*
X173001729Y-102977299D01*
X172954110Y-103072537D01*
X172954110Y-103596346D01*
X172049348Y-103596346D02*
X172049348Y-103072537D01*
X172096967Y-102977299D01*
X172192205Y-102929680D01*
X172382682Y-102929680D01*
X172477920Y-102977299D01*
X172049348Y-103548727D02*
X172144586Y-103596346D01*
X172382682Y-103596346D01*
X172477920Y-103548727D01*
X172525539Y-103453489D01*
X172525539Y-103358251D01*
X172477920Y-103263013D01*
X172382682Y-103215394D01*
X172144586Y-103215394D01*
X172049348Y-103167775D01*
X170239824Y-103596346D02*
X170573158Y-103120156D01*
X170811253Y-103596346D02*
X170811253Y-102596346D01*
X170430301Y-102596346D01*
X170335063Y-102643966D01*
X170287444Y-102691585D01*
X170239824Y-102786823D01*
X170239824Y-102929680D01*
X170287444Y-103024918D01*
X170335063Y-103072537D01*
X170430301Y-103120156D01*
X170811253Y-103120156D01*
X169430301Y-103548727D02*
X169525539Y-103596346D01*
X169716015Y-103596346D01*
X169811253Y-103548727D01*
X169858872Y-103453489D01*
X169858872Y-103072537D01*
X169811253Y-102977299D01*
X169716015Y-102929680D01*
X169525539Y-102929680D01*
X169430301Y-102977299D01*
X169382682Y-103072537D01*
X169382682Y-103167775D01*
X169858872Y-103263013D01*
X169049348Y-102929680D02*
X168811253Y-103596346D01*
X168573158Y-102929680D01*
X166906491Y-103596346D02*
X167477920Y-103596346D01*
X167192205Y-103596346D02*
X167192205Y-102596346D01*
X167287444Y-102739204D01*
X167382682Y-102834442D01*
X167477920Y-102882061D01*
%TO.C,Q3*%
X167285571Y-90940454D02*
X167380809Y-90892835D01*
X167476047Y-90797596D01*
X167618904Y-90654739D01*
X167714142Y-90607120D01*
X167809380Y-90607120D01*
X167761761Y-90845215D02*
X167856999Y-90797596D01*
X167952237Y-90702358D01*
X167999856Y-90511882D01*
X167999856Y-90178549D01*
X167952237Y-89988073D01*
X167856999Y-89892835D01*
X167761761Y-89845215D01*
X167571285Y-89845215D01*
X167476047Y-89892835D01*
X167380809Y-89988073D01*
X167333190Y-90178549D01*
X167333190Y-90511882D01*
X167380809Y-90702358D01*
X167476047Y-90797596D01*
X167571285Y-90845215D01*
X167761761Y-90845215D01*
X166999856Y-89845215D02*
X166380809Y-89845215D01*
X166714142Y-90226168D01*
X166571285Y-90226168D01*
X166476047Y-90273787D01*
X166428428Y-90321406D01*
X166380809Y-90416644D01*
X166380809Y-90654739D01*
X166428428Y-90749977D01*
X166476047Y-90797596D01*
X166571285Y-90845215D01*
X166856999Y-90845215D01*
X166952237Y-90797596D01*
X166999856Y-90749977D01*
%TO.C,R6*%
X116554067Y-115401917D02*
X116887401Y-114925727D01*
X117125496Y-115401917D02*
X117125496Y-114401917D01*
X116744543Y-114401917D01*
X116649305Y-114449537D01*
X116601686Y-114497156D01*
X116554067Y-114592394D01*
X116554067Y-114735251D01*
X116601686Y-114830489D01*
X116649305Y-114878108D01*
X116744543Y-114925727D01*
X117125496Y-114925727D01*
X115696924Y-114401917D02*
X115887401Y-114401917D01*
X115982639Y-114449537D01*
X116030258Y-114497156D01*
X116125496Y-114640013D01*
X116173115Y-114830489D01*
X116173115Y-115211441D01*
X116125496Y-115306679D01*
X116077877Y-115354298D01*
X115982639Y-115401917D01*
X115792162Y-115401917D01*
X115696924Y-115354298D01*
X115649305Y-115306679D01*
X115601686Y-115211441D01*
X115601686Y-114973346D01*
X115649305Y-114878108D01*
X115696924Y-114830489D01*
X115792162Y-114782870D01*
X115982639Y-114782870D01*
X116077877Y-114830489D01*
X116125496Y-114878108D01*
X116173115Y-114973346D01*
%TO.C,C10*%
X139763086Y-101229552D02*
X139810705Y-101277171D01*
X139953562Y-101324790D01*
X140048800Y-101324790D01*
X140191657Y-101277171D01*
X140286895Y-101181933D01*
X140334514Y-101086695D01*
X140382133Y-100896219D01*
X140382133Y-100753362D01*
X140334514Y-100562886D01*
X140286895Y-100467648D01*
X140191657Y-100372410D01*
X140048800Y-100324790D01*
X139953562Y-100324790D01*
X139810705Y-100372410D01*
X139763086Y-100420029D01*
X138810705Y-101324790D02*
X139382133Y-101324790D01*
X139096419Y-101324790D02*
X139096419Y-100324790D01*
X139191657Y-100467648D01*
X139286895Y-100562886D01*
X139382133Y-100610505D01*
X138191657Y-100324790D02*
X138096419Y-100324790D01*
X138001181Y-100372410D01*
X137953562Y-100420029D01*
X137905943Y-100515267D01*
X137858324Y-100705743D01*
X137858324Y-100943838D01*
X137905943Y-101134314D01*
X137953562Y-101229552D01*
X138001181Y-101277171D01*
X138096419Y-101324790D01*
X138191657Y-101324790D01*
X138286895Y-101277171D01*
X138334514Y-101229552D01*
X138382133Y-101134314D01*
X138429752Y-100943838D01*
X138429752Y-100705743D01*
X138382133Y-100515267D01*
X138334514Y-100420029D01*
X138286895Y-100372410D01*
X138191657Y-100324790D01*
%TO.C,R9*%
X137847032Y-110723630D02*
X138180366Y-110247440D01*
X138418461Y-110723630D02*
X138418461Y-109723630D01*
X138037508Y-109723630D01*
X137942270Y-109771250D01*
X137894651Y-109818869D01*
X137847032Y-109914107D01*
X137847032Y-110056964D01*
X137894651Y-110152202D01*
X137942270Y-110199821D01*
X138037508Y-110247440D01*
X138418461Y-110247440D01*
X137370842Y-110723630D02*
X137180366Y-110723630D01*
X137085127Y-110676011D01*
X137037508Y-110628392D01*
X136942270Y-110485535D01*
X136894651Y-110295059D01*
X136894651Y-109914107D01*
X136942270Y-109818869D01*
X136989889Y-109771250D01*
X137085127Y-109723630D01*
X137275604Y-109723630D01*
X137370842Y-109771250D01*
X137418461Y-109818869D01*
X137466080Y-109914107D01*
X137466080Y-110152202D01*
X137418461Y-110247440D01*
X137370842Y-110295059D01*
X137275604Y-110342678D01*
X137085127Y-110342678D01*
X136989889Y-110295059D01*
X136942270Y-110247440D01*
X136894651Y-110152202D01*
%TO.C,R10*%
X153906076Y-93038621D02*
X154239409Y-92562431D01*
X154477504Y-93038621D02*
X154477504Y-92038621D01*
X154096552Y-92038621D01*
X154001314Y-92086241D01*
X153953695Y-92133860D01*
X153906076Y-92229098D01*
X153906076Y-92371955D01*
X153953695Y-92467193D01*
X154001314Y-92514812D01*
X154096552Y-92562431D01*
X154477504Y-92562431D01*
X152953695Y-93038621D02*
X153525123Y-93038621D01*
X153239409Y-93038621D02*
X153239409Y-92038621D01*
X153334647Y-92181479D01*
X153429885Y-92276717D01*
X153525123Y-92324336D01*
X152334647Y-92038621D02*
X152239409Y-92038621D01*
X152144171Y-92086241D01*
X152096552Y-92133860D01*
X152048933Y-92229098D01*
X152001314Y-92419574D01*
X152001314Y-92657669D01*
X152048933Y-92848145D01*
X152096552Y-92943383D01*
X152144171Y-92991002D01*
X152239409Y-93038621D01*
X152334647Y-93038621D01*
X152429885Y-92991002D01*
X152477504Y-92943383D01*
X152525123Y-92848145D01*
X152572742Y-92657669D01*
X152572742Y-92419574D01*
X152525123Y-92229098D01*
X152477504Y-92133860D01*
X152429885Y-92086241D01*
X152334647Y-92038621D01*
%TO.C,C1*%
X120995777Y-112096593D02*
X121043396Y-112144212D01*
X121186253Y-112191831D01*
X121281491Y-112191831D01*
X121424349Y-112144212D01*
X121519587Y-112048974D01*
X121567206Y-111953736D01*
X121614825Y-111763260D01*
X121614825Y-111620403D01*
X121567206Y-111429927D01*
X121519587Y-111334689D01*
X121424349Y-111239451D01*
X121281491Y-111191831D01*
X121186253Y-111191831D01*
X121043396Y-111239451D01*
X120995777Y-111287070D01*
X120043396Y-112191831D02*
X120614825Y-112191831D01*
X120329111Y-112191831D02*
X120329111Y-111191831D01*
X120424349Y-111334689D01*
X120519587Y-111429927D01*
X120614825Y-111477546D01*
%TO.C,R14*%
X177294636Y-89929809D02*
X177627969Y-89453619D01*
X177866064Y-89929809D02*
X177866064Y-88929809D01*
X177485112Y-88929809D01*
X177389874Y-88977429D01*
X177342255Y-89025048D01*
X177294636Y-89120286D01*
X177294636Y-89263143D01*
X177342255Y-89358381D01*
X177389874Y-89406000D01*
X177485112Y-89453619D01*
X177866064Y-89453619D01*
X176342255Y-89929809D02*
X176913683Y-89929809D01*
X176627969Y-89929809D02*
X176627969Y-88929809D01*
X176723207Y-89072667D01*
X176818445Y-89167905D01*
X176913683Y-89215524D01*
X175485112Y-89263143D02*
X175485112Y-89929809D01*
X175723207Y-88882190D02*
X175961302Y-89596476D01*
X175342255Y-89596476D01*
%TO.C,C17*%
X111885595Y-109201076D02*
X111933214Y-109248695D01*
X112076071Y-109296314D01*
X112171309Y-109296314D01*
X112314166Y-109248695D01*
X112409404Y-109153457D01*
X112457023Y-109058219D01*
X112504642Y-108867743D01*
X112504642Y-108724886D01*
X112457023Y-108534410D01*
X112409404Y-108439172D01*
X112314166Y-108343934D01*
X112171309Y-108296314D01*
X112076071Y-108296314D01*
X111933214Y-108343934D01*
X111885595Y-108391553D01*
X110933214Y-109296314D02*
X111504642Y-109296314D01*
X111218928Y-109296314D02*
X111218928Y-108296314D01*
X111314166Y-108439172D01*
X111409404Y-108534410D01*
X111504642Y-108582029D01*
X110599880Y-108296314D02*
X109933214Y-108296314D01*
X110361785Y-109296314D01*
%TO.C,C8*%
X121918283Y-98772182D02*
X121965902Y-98819801D01*
X122108759Y-98867420D01*
X122203997Y-98867420D01*
X122346855Y-98819801D01*
X122442093Y-98724563D01*
X122489712Y-98629325D01*
X122537331Y-98438849D01*
X122537331Y-98295992D01*
X122489712Y-98105516D01*
X122442093Y-98010278D01*
X122346855Y-97915040D01*
X122203997Y-97867420D01*
X122108759Y-97867420D01*
X121965902Y-97915040D01*
X121918283Y-97962659D01*
X121346855Y-98295992D02*
X121442093Y-98248373D01*
X121489712Y-98200754D01*
X121537331Y-98105516D01*
X121537331Y-98057897D01*
X121489712Y-97962659D01*
X121442093Y-97915040D01*
X121346855Y-97867420D01*
X121156378Y-97867420D01*
X121061140Y-97915040D01*
X121013521Y-97962659D01*
X120965902Y-98057897D01*
X120965902Y-98105516D01*
X121013521Y-98200754D01*
X121061140Y-98248373D01*
X121156378Y-98295992D01*
X121346855Y-98295992D01*
X121442093Y-98343611D01*
X121489712Y-98391230D01*
X121537331Y-98486468D01*
X121537331Y-98676944D01*
X121489712Y-98772182D01*
X121442093Y-98819801D01*
X121346855Y-98867420D01*
X121156378Y-98867420D01*
X121061140Y-98819801D01*
X121013521Y-98772182D01*
X120965902Y-98676944D01*
X120965902Y-98486468D01*
X121013521Y-98391230D01*
X121061140Y-98343611D01*
X121156378Y-98295992D01*
%TO.C,R12*%
X169611797Y-115951210D02*
X169945130Y-115475020D01*
X170183225Y-115951210D02*
X170183225Y-114951210D01*
X169802273Y-114951210D01*
X169707035Y-114998830D01*
X169659416Y-115046449D01*
X169611797Y-115141687D01*
X169611797Y-115284544D01*
X169659416Y-115379782D01*
X169707035Y-115427401D01*
X169802273Y-115475020D01*
X170183225Y-115475020D01*
X168659416Y-115951210D02*
X169230844Y-115951210D01*
X168945130Y-115951210D02*
X168945130Y-114951210D01*
X169040368Y-115094068D01*
X169135606Y-115189306D01*
X169230844Y-115236925D01*
X168278463Y-115046449D02*
X168230844Y-114998830D01*
X168135606Y-114951210D01*
X167897511Y-114951210D01*
X167802273Y-114998830D01*
X167754654Y-115046449D01*
X167707035Y-115141687D01*
X167707035Y-115236925D01*
X167754654Y-115379782D01*
X168326082Y-115951210D01*
X167707035Y-115951210D01*
%TO.C,R15*%
X170914511Y-91892924D02*
X171247844Y-91416734D01*
X171485939Y-91892924D02*
X171485939Y-90892924D01*
X171104987Y-90892924D01*
X171009749Y-90940544D01*
X170962130Y-90988163D01*
X170914511Y-91083401D01*
X170914511Y-91226258D01*
X170962130Y-91321496D01*
X171009749Y-91369115D01*
X171104987Y-91416734D01*
X171485939Y-91416734D01*
X169962130Y-91892924D02*
X170533558Y-91892924D01*
X170247844Y-91892924D02*
X170247844Y-90892924D01*
X170343082Y-91035782D01*
X170438320Y-91131020D01*
X170533558Y-91178639D01*
X169057368Y-90892924D02*
X169533558Y-90892924D01*
X169581177Y-91369115D01*
X169533558Y-91321496D01*
X169438320Y-91273877D01*
X169200225Y-91273877D01*
X169104987Y-91321496D01*
X169057368Y-91369115D01*
X169009749Y-91464353D01*
X169009749Y-91702448D01*
X169057368Y-91797686D01*
X169104987Y-91845305D01*
X169200225Y-91892924D01*
X169438320Y-91892924D01*
X169533558Y-91845305D01*
X169581177Y-91797686D01*
%TO.C,C9*%
X131552365Y-109258910D02*
X131599984Y-109306529D01*
X131742841Y-109354148D01*
X131838079Y-109354148D01*
X131980937Y-109306529D01*
X132076175Y-109211291D01*
X132123794Y-109116053D01*
X132171413Y-108925577D01*
X132171413Y-108782720D01*
X132123794Y-108592244D01*
X132076175Y-108497006D01*
X131980937Y-108401768D01*
X131838079Y-108354148D01*
X131742841Y-108354148D01*
X131599984Y-108401768D01*
X131552365Y-108449387D01*
X131076175Y-109354148D02*
X130885699Y-109354148D01*
X130790460Y-109306529D01*
X130742841Y-109258910D01*
X130647603Y-109116053D01*
X130599984Y-108925577D01*
X130599984Y-108544625D01*
X130647603Y-108449387D01*
X130695222Y-108401768D01*
X130790460Y-108354148D01*
X130980937Y-108354148D01*
X131076175Y-108401768D01*
X131123794Y-108449387D01*
X131171413Y-108544625D01*
X131171413Y-108782720D01*
X131123794Y-108877958D01*
X131076175Y-108925577D01*
X130980937Y-108973196D01*
X130790460Y-108973196D01*
X130695222Y-108925577D01*
X130647603Y-108877958D01*
X130599984Y-108782720D01*
%TO.C,Q4*%
X160981133Y-90783961D02*
X161076371Y-90736342D01*
X161171609Y-90641103D01*
X161314466Y-90498246D01*
X161409704Y-90450627D01*
X161504942Y-90450627D01*
X161457323Y-90688722D02*
X161552561Y-90641103D01*
X161647799Y-90545865D01*
X161695418Y-90355389D01*
X161695418Y-90022056D01*
X161647799Y-89831580D01*
X161552561Y-89736342D01*
X161457323Y-89688722D01*
X161266847Y-89688722D01*
X161171609Y-89736342D01*
X161076371Y-89831580D01*
X161028752Y-90022056D01*
X161028752Y-90355389D01*
X161076371Y-90545865D01*
X161171609Y-90641103D01*
X161266847Y-90688722D01*
X161457323Y-90688722D01*
X160171609Y-90022056D02*
X160171609Y-90688722D01*
X160409704Y-89641103D02*
X160647799Y-90355389D01*
X160028752Y-90355389D01*
%TO.C,C11*%
X122015617Y-105328692D02*
X122063236Y-105376311D01*
X122206093Y-105423930D01*
X122301331Y-105423930D01*
X122444188Y-105376311D01*
X122539426Y-105281073D01*
X122587045Y-105185835D01*
X122634664Y-104995359D01*
X122634664Y-104852502D01*
X122587045Y-104662026D01*
X122539426Y-104566788D01*
X122444188Y-104471550D01*
X122301331Y-104423930D01*
X122206093Y-104423930D01*
X122063236Y-104471550D01*
X122015617Y-104519169D01*
X121063236Y-105423930D02*
X121634664Y-105423930D01*
X121348950Y-105423930D02*
X121348950Y-104423930D01*
X121444188Y-104566788D01*
X121539426Y-104662026D01*
X121634664Y-104709645D01*
X120110855Y-105423930D02*
X120682283Y-105423930D01*
X120396569Y-105423930D02*
X120396569Y-104423930D01*
X120491807Y-104566788D01*
X120587045Y-104662026D01*
X120682283Y-104709645D01*
%TO.C,C7*%
X124785075Y-109295094D02*
X124832694Y-109342713D01*
X124975551Y-109390332D01*
X125070789Y-109390332D01*
X125213647Y-109342713D01*
X125308885Y-109247475D01*
X125356504Y-109152237D01*
X125404123Y-108961761D01*
X125404123Y-108818904D01*
X125356504Y-108628428D01*
X125308885Y-108533190D01*
X125213647Y-108437952D01*
X125070789Y-108390332D01*
X124975551Y-108390332D01*
X124832694Y-108437952D01*
X124785075Y-108485571D01*
X124451742Y-108390332D02*
X123785075Y-108390332D01*
X124213647Y-109390332D01*
%TO.C,R3*%
X122052151Y-110045142D02*
X122385485Y-109568952D01*
X122623580Y-110045142D02*
X122623580Y-109045142D01*
X122242627Y-109045142D01*
X122147389Y-109092762D01*
X122099770Y-109140381D01*
X122052151Y-109235619D01*
X122052151Y-109378476D01*
X122099770Y-109473714D01*
X122147389Y-109521333D01*
X122242627Y-109568952D01*
X122623580Y-109568952D01*
X121718818Y-109045142D02*
X121099770Y-109045142D01*
X121433104Y-109426095D01*
X121290246Y-109426095D01*
X121195008Y-109473714D01*
X121147389Y-109521333D01*
X121099770Y-109616571D01*
X121099770Y-109854666D01*
X121147389Y-109949904D01*
X121195008Y-109997523D01*
X121290246Y-110045142D01*
X121575961Y-110045142D01*
X121671199Y-109997523D01*
X121718818Y-109949904D01*
%TO.C,Q1*%
X143329925Y-94482394D02*
X143425163Y-94434775D01*
X143520401Y-94339536D01*
X143663258Y-94196679D01*
X143758496Y-94149060D01*
X143853734Y-94149060D01*
X143806115Y-94387155D02*
X143901353Y-94339536D01*
X143996591Y-94244298D01*
X144044210Y-94053822D01*
X144044210Y-93720489D01*
X143996591Y-93530013D01*
X143901353Y-93434775D01*
X143806115Y-93387155D01*
X143615639Y-93387155D01*
X143520401Y-93434775D01*
X143425163Y-93530013D01*
X143377544Y-93720489D01*
X143377544Y-94053822D01*
X143425163Y-94244298D01*
X143520401Y-94339536D01*
X143615639Y-94387155D01*
X143806115Y-94387155D01*
X142425163Y-94387155D02*
X142996591Y-94387155D01*
X142710877Y-94387155D02*
X142710877Y-93387155D01*
X142806115Y-93530013D01*
X142901353Y-93625251D01*
X142996591Y-93672870D01*
%TO.C,R13*%
X166076165Y-115951210D02*
X166409498Y-115475020D01*
X166647593Y-115951210D02*
X166647593Y-114951210D01*
X166266641Y-114951210D01*
X166171403Y-114998830D01*
X166123784Y-115046449D01*
X166076165Y-115141687D01*
X166076165Y-115284544D01*
X166123784Y-115379782D01*
X166171403Y-115427401D01*
X166266641Y-115475020D01*
X166647593Y-115475020D01*
X165123784Y-115951210D02*
X165695212Y-115951210D01*
X165409498Y-115951210D02*
X165409498Y-114951210D01*
X165504736Y-115094068D01*
X165599974Y-115189306D01*
X165695212Y-115236925D01*
X164790450Y-114951210D02*
X164171403Y-114951210D01*
X164504736Y-115332163D01*
X164361879Y-115332163D01*
X164266641Y-115379782D01*
X164219022Y-115427401D01*
X164171403Y-115522639D01*
X164171403Y-115760734D01*
X164219022Y-115855972D01*
X164266641Y-115903591D01*
X164361879Y-115951210D01*
X164647593Y-115951210D01*
X164742831Y-115903591D01*
X164790450Y-115855972D01*
%TO.C,C14*%
X119071298Y-96559446D02*
X119118917Y-96607065D01*
X119261774Y-96654684D01*
X119357012Y-96654684D01*
X119499869Y-96607065D01*
X119595107Y-96511827D01*
X119642726Y-96416589D01*
X119690345Y-96226113D01*
X119690345Y-96083256D01*
X119642726Y-95892780D01*
X119595107Y-95797542D01*
X119499869Y-95702304D01*
X119357012Y-95654684D01*
X119261774Y-95654684D01*
X119118917Y-95702304D01*
X119071298Y-95749923D01*
X118118917Y-96654684D02*
X118690345Y-96654684D01*
X118404631Y-96654684D02*
X118404631Y-95654684D01*
X118499869Y-95797542D01*
X118595107Y-95892780D01*
X118690345Y-95940399D01*
X117261774Y-95988018D02*
X117261774Y-96654684D01*
X117499869Y-95607065D02*
X117737964Y-96321351D01*
X117118917Y-96321351D01*
%TO.C,R7*%
X134175260Y-91233116D02*
X133699070Y-90899783D01*
X134175260Y-90661687D02*
X133175260Y-90661687D01*
X133175260Y-91042640D01*
X133222880Y-91137878D01*
X133270499Y-91185497D01*
X133365737Y-91233116D01*
X133508594Y-91233116D01*
X133603832Y-91185497D01*
X133651451Y-91137878D01*
X133699070Y-91042640D01*
X133699070Y-90661687D01*
X133175260Y-91566449D02*
X133175260Y-92233116D01*
X134175260Y-91804544D01*
%TO.C,C6*%
X125588038Y-102953065D02*
X125635657Y-103000684D01*
X125778514Y-103048303D01*
X125873752Y-103048303D01*
X126016610Y-103000684D01*
X126111848Y-102905446D01*
X126159467Y-102810208D01*
X126207086Y-102619732D01*
X126207086Y-102476875D01*
X126159467Y-102286399D01*
X126111848Y-102191161D01*
X126016610Y-102095923D01*
X125873752Y-102048303D01*
X125778514Y-102048303D01*
X125635657Y-102095923D01*
X125588038Y-102143542D01*
X124730895Y-102048303D02*
X124921372Y-102048303D01*
X125016610Y-102095923D01*
X125064229Y-102143542D01*
X125159467Y-102286399D01*
X125207086Y-102476875D01*
X125207086Y-102857827D01*
X125159467Y-102953065D01*
X125111848Y-103000684D01*
X125016610Y-103048303D01*
X124826133Y-103048303D01*
X124730895Y-103000684D01*
X124683276Y-102953065D01*
X124635657Y-102857827D01*
X124635657Y-102619732D01*
X124683276Y-102524494D01*
X124730895Y-102476875D01*
X124826133Y-102429256D01*
X125016610Y-102429256D01*
X125111848Y-102476875D01*
X125159467Y-102524494D01*
X125207086Y-102619732D01*
%TO.C,R4*%
X119210194Y-111128811D02*
X119543528Y-110652621D01*
X119781623Y-111128811D02*
X119781623Y-110128811D01*
X119400670Y-110128811D01*
X119305432Y-110176431D01*
X119257813Y-110224050D01*
X119210194Y-110319288D01*
X119210194Y-110462145D01*
X119257813Y-110557383D01*
X119305432Y-110605002D01*
X119400670Y-110652621D01*
X119781623Y-110652621D01*
X118353051Y-110462145D02*
X118353051Y-111128811D01*
X118591147Y-110081192D02*
X118829242Y-110795478D01*
X118210194Y-110795478D01*
%TO.C,C15*%
X119046071Y-104210889D02*
X119093690Y-104258508D01*
X119236547Y-104306127D01*
X119331785Y-104306127D01*
X119474642Y-104258508D01*
X119569880Y-104163270D01*
X119617499Y-104068032D01*
X119665118Y-103877556D01*
X119665118Y-103734699D01*
X119617499Y-103544223D01*
X119569880Y-103448985D01*
X119474642Y-103353747D01*
X119331785Y-103306127D01*
X119236547Y-103306127D01*
X119093690Y-103353747D01*
X119046071Y-103401366D01*
X118093690Y-104306127D02*
X118665118Y-104306127D01*
X118379404Y-104306127D02*
X118379404Y-103306127D01*
X118474642Y-103448985D01*
X118569880Y-103544223D01*
X118665118Y-103591842D01*
X117188928Y-103306127D02*
X117665118Y-103306127D01*
X117712737Y-103782318D01*
X117665118Y-103734699D01*
X117569880Y-103687080D01*
X117331785Y-103687080D01*
X117236547Y-103734699D01*
X117188928Y-103782318D01*
X117141309Y-103877556D01*
X117141309Y-104115651D01*
X117188928Y-104210889D01*
X117236547Y-104258508D01*
X117331785Y-104306127D01*
X117569880Y-104306127D01*
X117665118Y-104258508D01*
X117712737Y-104210889D01*
%TO.C,R1*%
X130608695Y-113780360D02*
X130942029Y-113304170D01*
X131180124Y-113780360D02*
X131180124Y-112780360D01*
X130799171Y-112780360D01*
X130703933Y-112827980D01*
X130656314Y-112875599D01*
X130608695Y-112970837D01*
X130608695Y-113113694D01*
X130656314Y-113208932D01*
X130703933Y-113256551D01*
X130799171Y-113304170D01*
X131180124Y-113304170D01*
X129656314Y-113780360D02*
X130227743Y-113780360D01*
X129942029Y-113780360D02*
X129942029Y-112780360D01*
X130037267Y-112923218D01*
X130132505Y-113018456D01*
X130227743Y-113066075D01*
%TO.C,R8*%
X128700701Y-91277623D02*
X129034035Y-90801433D01*
X129272130Y-91277623D02*
X129272130Y-90277623D01*
X128891177Y-90277623D01*
X128795939Y-90325243D01*
X128748320Y-90372862D01*
X128700701Y-90468100D01*
X128700701Y-90610957D01*
X128748320Y-90706195D01*
X128795939Y-90753814D01*
X128891177Y-90801433D01*
X129272130Y-90801433D01*
X128129273Y-90706195D02*
X128224511Y-90658576D01*
X128272130Y-90610957D01*
X128319749Y-90515719D01*
X128319749Y-90468100D01*
X128272130Y-90372862D01*
X128224511Y-90325243D01*
X128129273Y-90277623D01*
X127938796Y-90277623D01*
X127843558Y-90325243D01*
X127795939Y-90372862D01*
X127748320Y-90468100D01*
X127748320Y-90515719D01*
X127795939Y-90610957D01*
X127843558Y-90658576D01*
X127938796Y-90706195D01*
X128129273Y-90706195D01*
X128224511Y-90753814D01*
X128272130Y-90801433D01*
X128319749Y-90896671D01*
X128319749Y-91087147D01*
X128272130Y-91182385D01*
X128224511Y-91230004D01*
X128129273Y-91277623D01*
X127938796Y-91277623D01*
X127843558Y-91230004D01*
X127795939Y-91182385D01*
X127748320Y-91087147D01*
X127748320Y-90896671D01*
X127795939Y-90801433D01*
X127843558Y-90753814D01*
X127938796Y-90706195D01*
%TO.C,R16*%
X164559444Y-91845271D02*
X164892777Y-91369081D01*
X165130872Y-91845271D02*
X165130872Y-90845271D01*
X164749920Y-90845271D01*
X164654682Y-90892891D01*
X164607063Y-90940510D01*
X164559444Y-91035748D01*
X164559444Y-91178605D01*
X164607063Y-91273843D01*
X164654682Y-91321462D01*
X164749920Y-91369081D01*
X165130872Y-91369081D01*
X163607063Y-91845271D02*
X164178491Y-91845271D01*
X163892777Y-91845271D02*
X163892777Y-90845271D01*
X163988015Y-90988129D01*
X164083253Y-91083367D01*
X164178491Y-91130986D01*
X162749920Y-90845271D02*
X162940396Y-90845271D01*
X163035634Y-90892891D01*
X163083253Y-90940510D01*
X163178491Y-91083367D01*
X163226110Y-91273843D01*
X163226110Y-91654795D01*
X163178491Y-91750033D01*
X163130872Y-91797652D01*
X163035634Y-91845271D01*
X162845158Y-91845271D01*
X162749920Y-91797652D01*
X162702301Y-91750033D01*
X162654682Y-91654795D01*
X162654682Y-91416700D01*
X162702301Y-91321462D01*
X162749920Y-91273843D01*
X162845158Y-91226224D01*
X163035634Y-91226224D01*
X163130872Y-91273843D01*
X163178491Y-91321462D01*
X163226110Y-91416700D01*
%TO.C,R11*%
X183625561Y-115948058D02*
X183958894Y-115471868D01*
X184196989Y-115948058D02*
X184196989Y-114948058D01*
X183816037Y-114948058D01*
X183720799Y-114995678D01*
X183673180Y-115043297D01*
X183625561Y-115138535D01*
X183625561Y-115281392D01*
X183673180Y-115376630D01*
X183720799Y-115424249D01*
X183816037Y-115471868D01*
X184196989Y-115471868D01*
X182673180Y-115948058D02*
X183244608Y-115948058D01*
X182958894Y-115948058D02*
X182958894Y-114948058D01*
X183054132Y-115090916D01*
X183149370Y-115186154D01*
X183244608Y-115233773D01*
X181720799Y-115948058D02*
X182292227Y-115948058D01*
X182006513Y-115948058D02*
X182006513Y-114948058D01*
X182101751Y-115090916D01*
X182196989Y-115186154D01*
X182292227Y-115233773D01*
%TO.C,C5*%
X187532330Y-95734558D02*
X187579949Y-95782177D01*
X187722806Y-95829796D01*
X187818044Y-95829796D01*
X187960902Y-95782177D01*
X188056140Y-95686939D01*
X188103759Y-95591701D01*
X188151378Y-95401225D01*
X188151378Y-95258368D01*
X188103759Y-95067892D01*
X188056140Y-94972654D01*
X187960902Y-94877416D01*
X187818044Y-94829796D01*
X187722806Y-94829796D01*
X187579949Y-94877416D01*
X187532330Y-94925035D01*
X186627568Y-94829796D02*
X187103759Y-94829796D01*
X187151378Y-95305987D01*
X187103759Y-95258368D01*
X187008521Y-95210749D01*
X186770425Y-95210749D01*
X186675187Y-95258368D01*
X186627568Y-95305987D01*
X186579949Y-95401225D01*
X186579949Y-95639320D01*
X186627568Y-95734558D01*
X186675187Y-95782177D01*
X186770425Y-95829796D01*
X187008521Y-95829796D01*
X187103759Y-95782177D01*
X187151378Y-95734558D01*
%TO.C,J4*%
X148686025Y-102071368D02*
X148686025Y-102785654D01*
X148733644Y-102928511D01*
X148828882Y-103023749D01*
X148971739Y-103071368D01*
X149066977Y-103071368D01*
X147781263Y-102404702D02*
X147781263Y-103071368D01*
X148019358Y-102023749D02*
X148257453Y-102738035D01*
X147638406Y-102738035D01*
%TO.C,C12*%
X124084489Y-91814228D02*
X124132108Y-91861847D01*
X124274965Y-91909466D01*
X124370203Y-91909466D01*
X124513060Y-91861847D01*
X124608298Y-91766609D01*
X124655917Y-91671371D01*
X124703536Y-91480895D01*
X124703536Y-91338038D01*
X124655917Y-91147562D01*
X124608298Y-91052324D01*
X124513060Y-90957086D01*
X124370203Y-90909466D01*
X124274965Y-90909466D01*
X124132108Y-90957086D01*
X124084489Y-91004705D01*
X123132108Y-91909466D02*
X123703536Y-91909466D01*
X123417822Y-91909466D02*
X123417822Y-90909466D01*
X123513060Y-91052324D01*
X123608298Y-91147562D01*
X123703536Y-91195181D01*
X122751155Y-91004705D02*
X122703536Y-90957086D01*
X122608298Y-90909466D01*
X122370203Y-90909466D01*
X122274965Y-90957086D01*
X122227346Y-91004705D01*
X122179727Y-91099943D01*
X122179727Y-91195181D01*
X122227346Y-91338038D01*
X122798774Y-91909466D01*
X122179727Y-91909466D01*
%TO.C,C4*%
X120344942Y-90915585D02*
X120392561Y-90867966D01*
X120440180Y-90725109D01*
X120440180Y-90629871D01*
X120392561Y-90487013D01*
X120297323Y-90391775D01*
X120202085Y-90344156D01*
X120011609Y-90296537D01*
X119868752Y-90296537D01*
X119678276Y-90344156D01*
X119583038Y-90391775D01*
X119487800Y-90487013D01*
X119440180Y-90629871D01*
X119440180Y-90725109D01*
X119487800Y-90867966D01*
X119535419Y-90915585D01*
X119773514Y-91772728D02*
X120440180Y-91772728D01*
X119392561Y-91534632D02*
X120106847Y-91296537D01*
X120106847Y-91915585D01*
%TO.C,C16*%
X116927456Y-108942709D02*
X116975075Y-108990328D01*
X117117932Y-109037947D01*
X117213170Y-109037947D01*
X117356027Y-108990328D01*
X117451265Y-108895090D01*
X117498884Y-108799852D01*
X117546503Y-108609376D01*
X117546503Y-108466519D01*
X117498884Y-108276043D01*
X117451265Y-108180805D01*
X117356027Y-108085567D01*
X117213170Y-108037947D01*
X117117932Y-108037947D01*
X116975075Y-108085567D01*
X116927456Y-108133186D01*
X115975075Y-109037947D02*
X116546503Y-109037947D01*
X116260789Y-109037947D02*
X116260789Y-108037947D01*
X116356027Y-108180805D01*
X116451265Y-108276043D01*
X116546503Y-108323662D01*
X115117932Y-108037947D02*
X115308408Y-108037947D01*
X115403646Y-108085567D01*
X115451265Y-108133186D01*
X115546503Y-108276043D01*
X115594122Y-108466519D01*
X115594122Y-108847471D01*
X115546503Y-108942709D01*
X115498884Y-108990328D01*
X115403646Y-109037947D01*
X115213170Y-109037947D01*
X115117932Y-108990328D01*
X115070313Y-108942709D01*
X115022694Y-108847471D01*
X115022694Y-108609376D01*
X115070313Y-108514138D01*
X115117932Y-108466519D01*
X115213170Y-108418900D01*
X115403646Y-108418900D01*
X115498884Y-108466519D01*
X115546503Y-108514138D01*
X115594122Y-108609376D01*
%TO.C,C13*%
X128901074Y-109430380D02*
X128948693Y-109477999D01*
X129091550Y-109525618D01*
X129186788Y-109525618D01*
X129329645Y-109477999D01*
X129424883Y-109382761D01*
X129472502Y-109287523D01*
X129520121Y-109097047D01*
X129520121Y-108954190D01*
X129472502Y-108763714D01*
X129424883Y-108668476D01*
X129329645Y-108573238D01*
X129186788Y-108525618D01*
X129091550Y-108525618D01*
X128948693Y-108573238D01*
X128901074Y-108620857D01*
X127948693Y-109525618D02*
X128520121Y-109525618D01*
X128234407Y-109525618D02*
X128234407Y-108525618D01*
X128329645Y-108668476D01*
X128424883Y-108763714D01*
X128520121Y-108811333D01*
X127615359Y-108525618D02*
X126996312Y-108525618D01*
X127329645Y-108906571D01*
X127186788Y-108906571D01*
X127091550Y-108954190D01*
X127043931Y-109001809D01*
X126996312Y-109097047D01*
X126996312Y-109335142D01*
X127043931Y-109430380D01*
X127091550Y-109477999D01*
X127186788Y-109525618D01*
X127472502Y-109525618D01*
X127567740Y-109477999D01*
X127615359Y-109430380D01*
%TO.C,C3*%
X125695374Y-112684701D02*
X125742993Y-112732320D01*
X125885850Y-112779939D01*
X125981088Y-112779939D01*
X126123946Y-112732320D01*
X126219184Y-112637082D01*
X126266803Y-112541844D01*
X126314422Y-112351368D01*
X126314422Y-112208511D01*
X126266803Y-112018035D01*
X126219184Y-111922797D01*
X126123946Y-111827559D01*
X125981088Y-111779939D01*
X125885850Y-111779939D01*
X125742993Y-111827559D01*
X125695374Y-111875178D01*
X125362041Y-111779939D02*
X124742993Y-111779939D01*
X125076327Y-112160892D01*
X124933469Y-112160892D01*
X124838231Y-112208511D01*
X124790612Y-112256130D01*
X124742993Y-112351368D01*
X124742993Y-112589463D01*
X124790612Y-112684701D01*
X124838231Y-112732320D01*
X124933469Y-112779939D01*
X125219184Y-112779939D01*
X125314422Y-112732320D01*
X125362041Y-112684701D01*
%TO.C,C2*%
X116156152Y-93027352D02*
X116203771Y-93074971D01*
X116346628Y-93122590D01*
X116441866Y-93122590D01*
X116584724Y-93074971D01*
X116679962Y-92979733D01*
X116727581Y-92884495D01*
X116775200Y-92694019D01*
X116775200Y-92551162D01*
X116727581Y-92360686D01*
X116679962Y-92265448D01*
X116584724Y-92170210D01*
X116441866Y-92122590D01*
X116346628Y-92122590D01*
X116203771Y-92170210D01*
X116156152Y-92217829D01*
X115775200Y-92217829D02*
X115727581Y-92170210D01*
X115632343Y-92122590D01*
X115394247Y-92122590D01*
X115299009Y-92170210D01*
X115251390Y-92217829D01*
X115203771Y-92313067D01*
X115203771Y-92408305D01*
X115251390Y-92551162D01*
X115822819Y-93122590D01*
X115203771Y-93122590D01*
%TO.C,R2*%
X139454375Y-94395175D02*
X139787709Y-93918985D01*
X140025804Y-94395175D02*
X140025804Y-93395175D01*
X139644851Y-93395175D01*
X139549613Y-93442795D01*
X139501994Y-93490414D01*
X139454375Y-93585652D01*
X139454375Y-93728509D01*
X139501994Y-93823747D01*
X139549613Y-93871366D01*
X139644851Y-93918985D01*
X140025804Y-93918985D01*
X139073423Y-93490414D02*
X139025804Y-93442795D01*
X138930566Y-93395175D01*
X138692470Y-93395175D01*
X138597232Y-93442795D01*
X138549613Y-93490414D01*
X138501994Y-93585652D01*
X138501994Y-93680890D01*
X138549613Y-93823747D01*
X139121042Y-94395175D01*
X138501994Y-94395175D01*
%TO.C,Q2*%
X172406692Y-90725430D02*
X172501930Y-90677811D01*
X172597168Y-90582572D01*
X172740025Y-90439715D01*
X172835263Y-90392096D01*
X172930501Y-90392096D01*
X172882882Y-90630191D02*
X172978120Y-90582572D01*
X173073358Y-90487334D01*
X173120977Y-90296858D01*
X173120977Y-89963525D01*
X173073358Y-89773049D01*
X172978120Y-89677811D01*
X172882882Y-89630191D01*
X172692406Y-89630191D01*
X172597168Y-89677811D01*
X172501930Y-89773049D01*
X172454311Y-89963525D01*
X172454311Y-90296858D01*
X172501930Y-90487334D01*
X172597168Y-90582572D01*
X172692406Y-90630191D01*
X172882882Y-90630191D01*
X172073358Y-89725430D02*
X172025739Y-89677811D01*
X171930501Y-89630191D01*
X171692406Y-89630191D01*
X171597168Y-89677811D01*
X171549549Y-89725430D01*
X171501930Y-89820668D01*
X171501930Y-89915906D01*
X171549549Y-90058763D01*
X172120977Y-90630191D01*
X171501930Y-90630191D01*
%TO.C,FB1*%
X114851678Y-103597770D02*
X115185011Y-103597770D01*
X115185011Y-104121579D02*
X115185011Y-103121579D01*
X114708821Y-103121579D01*
X113994535Y-103597770D02*
X113851678Y-103645389D01*
X113804059Y-103693008D01*
X113756440Y-103788246D01*
X113756440Y-103931103D01*
X113804059Y-104026341D01*
X113851678Y-104073960D01*
X113946916Y-104121579D01*
X114327868Y-104121579D01*
X114327868Y-103121579D01*
X113994535Y-103121579D01*
X113899297Y-103169199D01*
X113851678Y-103216818D01*
X113804059Y-103312056D01*
X113804059Y-103407294D01*
X113851678Y-103502532D01*
X113899297Y-103550151D01*
X113994535Y-103597770D01*
X114327868Y-103597770D01*
X112804059Y-104121579D02*
X113375487Y-104121579D01*
X113089773Y-104121579D02*
X113089773Y-103121579D01*
X113185011Y-103264437D01*
X113280249Y-103359675D01*
X113375487Y-103407294D01*
%TO.C,R5*%
X111350853Y-99449925D02*
X111684187Y-98973735D01*
X111922282Y-99449925D02*
X111922282Y-98449925D01*
X111541329Y-98449925D01*
X111446091Y-98497545D01*
X111398472Y-98545164D01*
X111350853Y-98640402D01*
X111350853Y-98783259D01*
X111398472Y-98878497D01*
X111446091Y-98926116D01*
X111541329Y-98973735D01*
X111922282Y-98973735D01*
X110446091Y-98449925D02*
X110922282Y-98449925D01*
X110969901Y-98926116D01*
X110922282Y-98878497D01*
X110827044Y-98830878D01*
X110588948Y-98830878D01*
X110493710Y-98878497D01*
X110446091Y-98926116D01*
X110398472Y-99021354D01*
X110398472Y-99259449D01*
X110446091Y-99354687D01*
X110493710Y-99402306D01*
X110588948Y-99449925D01*
X110827044Y-99449925D01*
X110922282Y-99402306D01*
X110969901Y-99354687D01*
D11*
%TO.C,Q3*%
X167190333Y-91232835D02*
X166540333Y-91232835D01*
X167190333Y-94352835D02*
X166540333Y-94352835D01*
X167190333Y-91232835D02*
X168865333Y-91232835D01*
X167190333Y-94352835D02*
X167840333Y-94352835D01*
%TO.C,R6*%
X117383613Y-112351450D02*
X117383613Y-112805578D01*
X115913613Y-112351450D02*
X115913613Y-112805578D01*
%TO.C,C10*%
X139809637Y-98146408D02*
X139809637Y-98668912D01*
X138339637Y-98146408D02*
X138339637Y-98668912D01*
%TO.C,R9*%
X140277932Y-109636429D02*
X140277932Y-110090557D01*
X138807932Y-109636429D02*
X138807932Y-110090557D01*
%TO.C,R10*%
X153036155Y-90201241D02*
X153490283Y-90201241D01*
X153036155Y-91671241D02*
X153490283Y-91671241D01*
%TO.C,C1*%
X121544307Y-114226664D02*
X121544307Y-113704160D01*
X120074307Y-114226664D02*
X120074307Y-113704160D01*
%TO.C,R14*%
X175067642Y-89511480D02*
X175067642Y-89057352D01*
X173597642Y-89511480D02*
X173597642Y-89057352D01*
%TO.C,C17*%
X111424711Y-106505058D02*
X110902207Y-106505058D01*
X111424711Y-107975058D02*
X110902207Y-107975058D01*
%TO.C,C8*%
X120431479Y-100734562D02*
X120953983Y-100734562D01*
X120431479Y-99264562D02*
X120953983Y-99264562D01*
%TO.C,R12*%
X168131150Y-112732669D02*
X168131150Y-112278541D01*
X169601150Y-112732669D02*
X169601150Y-112278541D01*
%TO.C,R15*%
X168539777Y-89500912D02*
X168539777Y-89046784D01*
X170009777Y-89500912D02*
X170009777Y-89046784D01*
%TO.C,C9*%
X131646951Y-111316768D02*
X131124447Y-111316768D01*
X131646951Y-109846768D02*
X131124447Y-109846768D01*
%TO.C,Q4*%
X160885895Y-91076342D02*
X162560895Y-91076342D01*
X160885895Y-94196342D02*
X160235895Y-94196342D01*
X160885895Y-91076342D02*
X160235895Y-91076342D01*
X160885895Y-94196342D02*
X161535895Y-94196342D01*
%TO.C,C11*%
X121111508Y-102556550D02*
X121634012Y-102556550D01*
X121111508Y-104026550D02*
X121634012Y-104026550D01*
%TO.C,C7*%
X124879661Y-109882952D02*
X124357157Y-109882952D01*
X124879661Y-111352952D02*
X124357157Y-111352952D01*
%TO.C,R3*%
X122600237Y-107670702D02*
X122600237Y-107216574D01*
X121130237Y-107670702D02*
X121130237Y-107216574D01*
%TO.C,Q1*%
X141691138Y-96555078D02*
X141691138Y-97205078D01*
X141691138Y-96555078D02*
X141691138Y-94880078D01*
X144811138Y-96555078D02*
X144811138Y-95905078D01*
X144811138Y-96555078D02*
X144811138Y-97205078D01*
%TO.C,R13*%
X166085390Y-112732669D02*
X166085390Y-112278541D01*
X164615390Y-112732669D02*
X164615390Y-112278541D01*
%TO.C,C14*%
X118689693Y-97147304D02*
X118167189Y-97147304D01*
X118689693Y-98617304D02*
X118167189Y-98617304D01*
%TO.C,R7*%
X131337880Y-91626847D02*
X131337880Y-91172719D01*
X132807880Y-91626847D02*
X132807880Y-91172719D01*
%TO.C,C6*%
X125160120Y-100180923D02*
X125682624Y-100180923D01*
X125160120Y-101650923D02*
X125682624Y-101650923D01*
%TO.C,R4*%
X119305535Y-108219598D02*
X118851407Y-108219598D01*
X119305535Y-109689598D02*
X118851407Y-109689598D01*
%TO.C,C15*%
X119259620Y-105859321D02*
X119259620Y-106381825D01*
X117789620Y-105859321D02*
X117789620Y-106381825D01*
%TO.C,R1*%
X128886977Y-115616528D02*
X128432849Y-115616528D01*
X128886977Y-114146528D02*
X128432849Y-114146528D01*
%TO.C,R8*%
X128761099Y-93210243D02*
X128306971Y-93210243D01*
X128761099Y-91740243D02*
X128306971Y-91740243D01*
%TO.C,R16*%
X164596823Y-89404646D02*
X164596823Y-88950518D01*
X163126823Y-89404646D02*
X163126823Y-88950518D01*
%TO.C,R11*%
X183621261Y-112653167D02*
X183621261Y-112199039D01*
X182151261Y-112653167D02*
X182151261Y-112199039D01*
%TO.C,C5*%
X187104412Y-92962416D02*
X187626916Y-92962416D01*
X187104412Y-94432416D02*
X187626916Y-94432416D01*
%TO.C,J4*%
X143472692Y-115618988D02*
X142242692Y-115618988D01*
X154422692Y-105348988D02*
X154422692Y-109798988D01*
X154422692Y-111198988D02*
X154422692Y-113498988D01*
X154422692Y-114898988D02*
X154422692Y-115618988D01*
X154422692Y-115618988D02*
X151742692Y-115618988D01*
X142242692Y-115618988D02*
X142242692Y-105798988D01*
X152942692Y-103978988D02*
X152082692Y-103978988D01*
X149442692Y-115618988D02*
X145772692Y-115618988D01*
%TO.C,C12*%
X123826693Y-93748319D02*
X124349197Y-93748319D01*
X123826693Y-92278319D02*
X124349197Y-92278319D01*
%TO.C,C4*%
X118949628Y-90599405D02*
X118949628Y-90076901D01*
X117479628Y-90599405D02*
X117479628Y-90076901D01*
%TO.C,C16*%
X117002841Y-105875327D02*
X117002841Y-106397831D01*
X115532841Y-105875327D02*
X115532841Y-106397831D01*
%TO.C,C13*%
X129155820Y-111041284D02*
X129155820Y-111563788D01*
X127685820Y-111041284D02*
X127685820Y-111563788D01*
%TO.C,C3*%
X122250083Y-114175769D02*
X122250083Y-113653265D01*
X123720083Y-114175769D02*
X123720083Y-113653265D01*
%TO.C,C2*%
X116709602Y-94698934D02*
X116709602Y-95221438D01*
X115239602Y-94698934D02*
X115239602Y-95221438D01*
%TO.C,R2*%
X138833581Y-96204164D02*
X139287709Y-96204164D01*
X138833581Y-94734164D02*
X139287709Y-94734164D01*
%TO.C,Q2*%
X172807507Y-91232835D02*
X174482507Y-91232835D01*
X172807507Y-94352835D02*
X173457507Y-94352835D01*
X172807507Y-91232835D02*
X172157507Y-91232835D01*
X172807507Y-94352835D02*
X172157507Y-94352835D01*
%TO.C,FB1*%
X114794077Y-106005548D02*
X114794077Y-106459676D01*
X113324077Y-106005548D02*
X113324077Y-106459676D01*
%TO.C,R5*%
X110957123Y-96612545D02*
X111411251Y-96612545D01*
X110957123Y-98082545D02*
X111411251Y-98082545D01*
%TD*%
M02*
