%TF.GenerationSoftware,KiCad,Pcbnew,(6.0.1)*%
%TF.CreationDate,2022-04-25T15:24:58-05:00*%
%TF.ProjectId,Airbrake Controller,41697262-7261-46b6-9520-436f6e74726f,rev?*%
%TF.SameCoordinates,Original*%
%TF.FileFunction,Copper,L1,Top*%
%TF.FilePolarity,Positive*%
%FSLAX46Y46*%
G04 Gerber Fmt 4.6, Leading zero omitted, Abs format (unit mm)*
G04 Created by KiCad (PCBNEW (6.0.1)) date 2022-04-25 15:24:58*
%MOMM*%
%LPD*%
G01*
G04 APERTURE LIST*
G04 Aperture macros list*
%AMRoundRect*
0 Rectangle with rounded corners*
0 $1 Rounding radius*
0 $2 $3 $4 $5 $6 $7 $8 $9 X,Y pos of 4 corners*
0 Add a 4 corners polygon primitive as box body*
4,1,4,$2,$3,$4,$5,$6,$7,$8,$9,$2,$3,0*
0 Add four circle primitives for the rounded corners*
1,1,$1+$1,$2,$3*
1,1,$1+$1,$4,$5*
1,1,$1+$1,$6,$7*
1,1,$1+$1,$8,$9*
0 Add four rect primitives between the rounded corners*
20,1,$1+$1,$2,$3,$4,$5,0*
20,1,$1+$1,$4,$5,$6,$7,0*
20,1,$1+$1,$6,$7,$8,$9,0*
20,1,$1+$1,$8,$9,$2,$3,0*%
G04 Aperture macros list end*
%TA.AperFunction,ComponentPad*%
%ADD10R,2.400000X2.400000*%
%TD*%
%TA.AperFunction,ComponentPad*%
%ADD11C,2.400000*%
%TD*%
%TA.AperFunction,ComponentPad*%
%ADD12C,0.800000*%
%TD*%
%TA.AperFunction,ComponentPad*%
%ADD13C,6.400000*%
%TD*%
%TA.AperFunction,SMDPad,CuDef*%
%ADD14RoundRect,0.150000X0.650000X0.150000X-0.650000X0.150000X-0.650000X-0.150000X0.650000X-0.150000X0*%
%TD*%
%TA.AperFunction,ComponentPad*%
%ADD15R,1.700000X1.700000*%
%TD*%
%TA.AperFunction,ComponentPad*%
%ADD16O,1.700000X1.700000*%
%TD*%
%TA.AperFunction,SMDPad,CuDef*%
%ADD17RoundRect,0.243750X-0.243750X-0.456250X0.243750X-0.456250X0.243750X0.456250X-0.243750X0.456250X0*%
%TD*%
%TA.AperFunction,ComponentPad*%
%ADD18RoundRect,0.250000X-0.625000X0.350000X-0.625000X-0.350000X0.625000X-0.350000X0.625000X0.350000X0*%
%TD*%
%TA.AperFunction,ComponentPad*%
%ADD19O,1.750000X1.200000*%
%TD*%
%TA.AperFunction,SMDPad,CuDef*%
%ADD20RoundRect,0.243750X0.243750X0.456250X-0.243750X0.456250X-0.243750X-0.456250X0.243750X-0.456250X0*%
%TD*%
%TA.AperFunction,SMDPad,CuDef*%
%ADD21R,1.200000X1.400000*%
%TD*%
%TA.AperFunction,SMDPad,CuDef*%
%ADD22RoundRect,0.243750X0.456250X-0.243750X0.456250X0.243750X-0.456250X0.243750X-0.456250X-0.243750X0*%
%TD*%
%TA.AperFunction,ComponentPad*%
%ADD23C,6.000000*%
%TD*%
%TA.AperFunction,SMDPad,CuDef*%
%ADD24R,4.000000X1.200000*%
%TD*%
%TA.AperFunction,SMDPad,CuDef*%
%ADD25RoundRect,0.150000X-0.512500X-0.150000X0.512500X-0.150000X0.512500X0.150000X-0.512500X0.150000X0*%
%TD*%
%TA.AperFunction,SMDPad,CuDef*%
%ADD26RoundRect,0.075000X-0.700000X-0.075000X0.700000X-0.075000X0.700000X0.075000X-0.700000X0.075000X0*%
%TD*%
%TA.AperFunction,SMDPad,CuDef*%
%ADD27RoundRect,0.075000X-0.075000X-0.700000X0.075000X-0.700000X0.075000X0.700000X-0.075000X0.700000X0*%
%TD*%
%TA.AperFunction,SMDPad,CuDef*%
%ADD28R,0.400000X1.350000*%
%TD*%
%TA.AperFunction,SMDPad,CuDef*%
%ADD29R,1.500000X1.550000*%
%TD*%
%TA.AperFunction,ComponentPad*%
%ADD30O,0.890000X1.550000*%
%TD*%
%TA.AperFunction,SMDPad,CuDef*%
%ADD31R,1.200000X1.550000*%
%TD*%
%TA.AperFunction,ComponentPad*%
%ADD32O,1.250000X0.950000*%
%TD*%
%TA.AperFunction,ViaPad*%
%ADD33C,0.500000*%
%TD*%
%TA.AperFunction,ViaPad*%
%ADD34C,0.800000*%
%TD*%
%TA.AperFunction,Conductor*%
%ADD35C,0.500000*%
%TD*%
%TA.AperFunction,Conductor*%
%ADD36C,0.300000*%
%TD*%
%TA.AperFunction,Conductor*%
%ADD37C,0.250000*%
%TD*%
G04 APERTURE END LIST*
D10*
%TO.P,J5,1,Pin_1*%
%TO.N,GND*%
X193013074Y-103511751D03*
D11*
%TO.P,J5,2,Pin_2*%
%TO.N,+5V*%
X193013074Y-100011751D03*
%TD*%
D12*
%TO.P,H2,1*%
%TO.N,N/C*%
X108552362Y-113093895D03*
X113352362Y-113093895D03*
X112649418Y-111396839D03*
X110952362Y-110693895D03*
X110952362Y-115493895D03*
X109255306Y-111396839D03*
X112649418Y-114790951D03*
D13*
X110952362Y-113093895D03*
D12*
X109255306Y-114790951D03*
%TD*%
D14*
%TO.P,U2,1,~{CS}*%
%TO.N,Flash_CS*%
X125895922Y-114869838D03*
%TO.P,U2,2,DO(IO1)*%
%TO.N,Flash_MISO*%
X125895922Y-113599838D03*
%TO.P,U2,3,IO2*%
%TO.N,unconnected-(U2-Pad3)*%
X125895922Y-112329838D03*
%TO.P,U2,4,GND*%
%TO.N,GND*%
X125895922Y-111059838D03*
%TO.P,U2,5,DI(IO0)*%
%TO.N,Flash_MOSI*%
X118695922Y-111059838D03*
%TO.P,U2,6,CLK*%
%TO.N,Flash_SCK*%
X118695922Y-112329838D03*
%TO.P,U2,7,IO3*%
%TO.N,Net-(R6-Pad2)*%
X118695922Y-113599838D03*
%TO.P,U2,8,VCC*%
%TO.N,+3V3*%
X118695922Y-114869838D03*
%TD*%
D15*
%TO.P,J1,1,Pin_1*%
%TO.N,+3V3*%
X126618406Y-88577368D03*
D16*
%TO.P,J1,2,Pin_2*%
%TO.N,/Boot0_pulldown*%
X129158406Y-88577368D03*
%TD*%
D17*
%TO.P,D1,1,K*%
%TO.N,/LED_Reg_C*%
X110244223Y-97404776D03*
%TO.P,D1,2,A*%
%TO.N,+3V3*%
X112119223Y-97404776D03*
%TD*%
D18*
%TO.P,J2,1,Pin_1*%
%TO.N,GND*%
X110695863Y-101013057D03*
D19*
%TO.P,J2,2,Pin_2*%
%TO.N,V_Batt*%
X110695863Y-103013057D03*
%TD*%
D20*
%TO.P,D3,1,K*%
%TO.N,Net-(D3-Pad1)*%
X149686104Y-90940910D03*
%TO.P,D3,2,A*%
%TO.N,Net-(D3-Pad2)*%
X147811104Y-90940910D03*
%TD*%
D12*
%TO.P,H1,1*%
%TO.N,N/C*%
X110941341Y-88043383D03*
D13*
X110941341Y-90443383D03*
D12*
X113341341Y-90443383D03*
X110941341Y-92843383D03*
X109244285Y-88746327D03*
X112638397Y-88746327D03*
X108541341Y-90443383D03*
X112638397Y-92140439D03*
X109244285Y-92140439D03*
%TD*%
D21*
%TO.P,Y1,1,1*%
%TO.N,/OSC_IN*%
X116078198Y-101040139D03*
%TO.P,Y1,2,2*%
%TO.N,GND*%
X116078198Y-103240139D03*
%TO.P,Y1,3,3*%
%TO.N,/OSC_OUT*%
X117778198Y-103240139D03*
%TO.P,Y1,4,4*%
%TO.N,GND*%
X117778198Y-101040139D03*
%TD*%
D22*
%TO.P,D2,1,K*%
%TO.N,/Status_LEDC*%
X137239183Y-106311435D03*
%TO.P,D2,2,A*%
%TO.N,/Status_LED*%
X137239183Y-104436435D03*
%TD*%
D12*
%TO.P,H3,1*%
%TO.N,N/C*%
X194924017Y-88639387D03*
X193333027Y-92480377D03*
X195583027Y-90230377D03*
D23*
X193333027Y-90230377D03*
D12*
X191742037Y-88639387D03*
X191742037Y-91821367D03*
X193333027Y-87980377D03*
X191083027Y-90230377D03*
X194924017Y-91821367D03*
%TD*%
D24*
%TO.P,BZ1,1,-*%
%TO.N,+3V3*%
X148320374Y-107464544D03*
%TO.P,BZ1,2,+*%
%TO.N,/Buzz_NPN*%
X148320374Y-96264544D03*
%TD*%
D12*
%TO.P,H4,1*%
%TO.N,N/C*%
X190721534Y-113115426D03*
X191424478Y-114812482D03*
X194818590Y-111418370D03*
X195521534Y-113115426D03*
X191424478Y-111418370D03*
X194818590Y-114812482D03*
X193121534Y-110715426D03*
X193121534Y-115515426D03*
D13*
X193121534Y-113115426D03*
%TD*%
D25*
%TO.P,U1,1,IN*%
%TO.N,V_Reg*%
X115970080Y-92955010D03*
%TO.P,U1,2,GND*%
%TO.N,GND*%
X115970080Y-93905010D03*
%TO.P,U1,3,EN*%
%TO.N,V_Reg*%
X115970080Y-94855010D03*
%TO.P,U1,4,BP*%
%TO.N,unconnected-(U1-Pad4)*%
X118245080Y-94855010D03*
%TO.P,U1,5,OUT*%
%TO.N,+3V3*%
X118245080Y-92955010D03*
%TD*%
D26*
%TO.P,U3,1,VBAT*%
%TO.N,+3V3*%
X121928812Y-97884272D03*
%TO.P,U3,2,PC13*%
%TO.N,unconnected-(U3-Pad2)*%
X121928812Y-98384272D03*
%TO.P,U3,3,PC14*%
%TO.N,unconnected-(U3-Pad3)*%
X121928812Y-98884272D03*
%TO.P,U3,4,PC15*%
%TO.N,unconnected-(U3-Pad4)*%
X121928812Y-99384272D03*
%TO.P,U3,5,PH0*%
%TO.N,/OSC_IN*%
X121928812Y-99884272D03*
%TO.P,U3,6,PH1*%
%TO.N,/OSC_OUT*%
X121928812Y-100384272D03*
%TO.P,U3,7,NRST*%
%TO.N,/NRST*%
X121928812Y-100884272D03*
%TO.P,U3,8,PC0*%
%TO.N,unconnected-(U3-Pad8)*%
X121928812Y-101384272D03*
%TO.P,U3,9,PC1*%
%TO.N,Flash_MOSI*%
X121928812Y-101884272D03*
%TO.P,U3,10,PC2*%
%TO.N,Flash_MISO*%
X121928812Y-102384272D03*
%TO.P,U3,11,PC3*%
%TO.N,Flash_CS*%
X121928812Y-102884272D03*
%TO.P,U3,12,VSSA*%
%TO.N,GND*%
X121928812Y-103384272D03*
%TO.P,U3,13,VDDA*%
%TO.N,3V3A*%
X121928812Y-103884272D03*
%TO.P,U3,14,PA0*%
%TO.N,unconnected-(U3-Pad14)*%
X121928812Y-104384272D03*
%TO.P,U3,15,PA1*%
%TO.N,ADC_Battery*%
X121928812Y-104884272D03*
%TO.P,U3,16,PA2*%
%TO.N,unconnected-(U3-Pad16)*%
X121928812Y-105384272D03*
D27*
%TO.P,U3,17,PA3*%
%TO.N,unconnected-(U3-Pad17)*%
X123853812Y-107309272D03*
%TO.P,U3,18,VSS*%
%TO.N,GND*%
X124353812Y-107309272D03*
%TO.P,U3,19,VDD*%
%TO.N,+3V3*%
X124853812Y-107309272D03*
%TO.P,U3,20,PA4*%
%TO.N,unconnected-(U3-Pad20)*%
X125353812Y-107309272D03*
%TO.P,U3,21,PA5*%
%TO.N,Altus_SCK*%
X125853812Y-107309272D03*
%TO.P,U3,22,PA6*%
%TO.N,Altus_MISO*%
X126353812Y-107309272D03*
%TO.P,U3,23,PA7*%
%TO.N,Altus_MOSI*%
X126853812Y-107309272D03*
%TO.P,U3,24,PC4*%
%TO.N,Altus_CS*%
X127353812Y-107309272D03*
%TO.P,U3,25,PC5*%
%TO.N,unconnected-(U3-Pad25)*%
X127853812Y-107309272D03*
%TO.P,U3,26,PB0*%
%TO.N,SD_MOSI*%
X128353812Y-107309272D03*
%TO.P,U3,27,PB1*%
%TO.N,unconnected-(U3-Pad27)*%
X128853812Y-107309272D03*
%TO.P,U3,28,PB2*%
%TO.N,unconnected-(U3-Pad28)*%
X129353812Y-107309272D03*
%TO.P,U3,29,PB10*%
%TO.N,Flash_SCK*%
X129853812Y-107309272D03*
%TO.P,U3,30,VCAP_1*%
%TO.N,/VCAP*%
X130353812Y-107309272D03*
%TO.P,U3,31,VSS*%
%TO.N,GND*%
X130853812Y-107309272D03*
%TO.P,U3,32,VDD*%
%TO.N,+3V3*%
X131353812Y-107309272D03*
D26*
%TO.P,U3,33,PB12*%
%TO.N,/Status_LED*%
X133278812Y-105384272D03*
%TO.P,U3,34,PB13*%
%TO.N,unconnected-(U3-Pad34)*%
X133278812Y-104884272D03*
%TO.P,U3,35,PB14*%
%TO.N,unconnected-(U3-Pad35)*%
X133278812Y-104384272D03*
%TO.P,U3,36,PB15*%
%TO.N,Step_DIR*%
X133278812Y-103884272D03*
%TO.P,U3,37,PC6*%
%TO.N,unconnected-(U3-Pad37)*%
X133278812Y-103384272D03*
%TO.P,U3,38,PC7*%
%TO.N,Extra_Out*%
X133278812Y-102884272D03*
%TO.P,U3,39,PC8*%
%TO.N,unconnected-(U3-Pad39)*%
X133278812Y-102384272D03*
%TO.P,U3,40,PC9*%
%TO.N,Step_EN*%
X133278812Y-101884272D03*
%TO.P,U3,41,PA8*%
%TO.N,unconnected-(U3-Pad41)*%
X133278812Y-101384272D03*
%TO.P,U3,42,PA9*%
%TO.N,unconnected-(U3-Pad42)*%
X133278812Y-100884272D03*
%TO.P,U3,43,PA10*%
%TO.N,unconnected-(U3-Pad43)*%
X133278812Y-100384272D03*
%TO.P,U3,44,PA11*%
%TO.N,USB_D-*%
X133278812Y-99884272D03*
%TO.P,U3,45,PA12*%
%TO.N,USB_D+*%
X133278812Y-99384272D03*
%TO.P,U3,46,PA13*%
%TO.N,SWD_IO*%
X133278812Y-98884272D03*
%TO.P,U3,47,VSS*%
%TO.N,GND*%
X133278812Y-98384272D03*
%TO.P,U3,48,VDD*%
%TO.N,+3V3*%
X133278812Y-97884272D03*
D27*
%TO.P,U3,49,PA14*%
%TO.N,SWD_SCK*%
X131353812Y-95959272D03*
%TO.P,U3,50,PA15*%
%TO.N,Buzz_PWM*%
X130853812Y-95959272D03*
%TO.P,U3,51,PC10*%
%TO.N,SD_SCK*%
X130353812Y-95959272D03*
%TO.P,U3,52,PC11*%
%TO.N,SD_MISO*%
X129853812Y-95959272D03*
%TO.P,U3,53,PC12*%
%TO.N,unconnected-(U3-Pad53)*%
X129353812Y-95959272D03*
%TO.P,U3,54,PD2*%
%TO.N,SD_CS*%
X128853812Y-95959272D03*
%TO.P,U3,55,PB3*%
%TO.N,unconnected-(U3-Pad55)*%
X128353812Y-95959272D03*
%TO.P,U3,56,PB4*%
%TO.N,Step_PWM*%
X127853812Y-95959272D03*
%TO.P,U3,57,PB5*%
%TO.N,unconnected-(U3-Pad57)*%
X127353812Y-95959272D03*
%TO.P,U3,58,PB6*%
%TO.N,Extra_SCL*%
X126853812Y-95959272D03*
%TO.P,U3,59,PB7*%
%TO.N,Extra_SDA*%
X126353812Y-95959272D03*
%TO.P,U3,60,BOOT0*%
%TO.N,/Boot0*%
X125853812Y-95959272D03*
%TO.P,U3,61,PB8*%
%TO.N,unconnected-(U3-Pad61)*%
X125353812Y-95959272D03*
%TO.P,U3,62,PB9*%
%TO.N,unconnected-(U3-Pad62)*%
X124853812Y-95959272D03*
%TO.P,U3,63,VSS*%
%TO.N,GND*%
X124353812Y-95959272D03*
%TO.P,U3,64,VDD*%
%TO.N,+3V3*%
X123853812Y-95959272D03*
%TD*%
D28*
%TO.P,J3,1,VBUS*%
%TO.N,Net-(D3-Pad2)*%
X139912258Y-91059857D03*
%TO.P,J3,2,D-*%
%TO.N,USB_D-*%
X139262258Y-91059857D03*
%TO.P,J3,3,D+*%
%TO.N,USB_D+*%
X138612258Y-91059857D03*
%TO.P,J3,4,ID*%
%TO.N,unconnected-(J3-Pad4)*%
X137962258Y-91059857D03*
%TO.P,J3,5,GND*%
%TO.N,GND*%
X137312258Y-91059857D03*
D29*
%TO.P,J3,6,Shield*%
%TO.N,unconnected-(J3-Pad6)*%
X139612258Y-88359857D03*
D30*
X142112258Y-88359857D03*
D31*
X135712258Y-88359857D03*
X141512258Y-88359857D03*
D32*
X136112258Y-91059857D03*
X141112258Y-91059857D03*
D29*
X137612258Y-88359857D03*
D30*
X135112258Y-88359857D03*
%TD*%
D10*
%TO.P,J7,1,Pin_1*%
%TO.N,GND*%
X158361601Y-106389591D03*
D11*
%TO.P,J7,2,Pin_2*%
%TO.N,Extra_Out*%
X161861601Y-106389591D03*
%TO.P,J7,3,Pin_3*%
%TO.N,Extra_SDA*%
X165361601Y-106389591D03*
%TO.P,J7,4,Pin_4*%
%TO.N,Extra_SCL*%
X168861601Y-106389591D03*
%TO.P,J7,5,Pin_5*%
%TO.N,Altus_MOSI*%
X172361601Y-106389591D03*
%TO.P,J7,6,Pin_6*%
%TO.N,Altus_MISO*%
X175861601Y-106389591D03*
%TO.P,J7,7,Pin_7*%
%TO.N,Altus_SCK*%
X179361601Y-106389591D03*
%TO.P,J7,8,Pin_8*%
%TO.N,Altus_CS*%
X182861601Y-106389591D03*
%TO.P,J7,9,Pin_9*%
%TO.N,+3V3*%
X186361601Y-106389591D03*
%TD*%
D10*
%TO.P,J6,1,Pin_1*%
%TO.N,+3V3*%
X186268636Y-98185760D03*
D11*
%TO.P,J6,2,Pin_2*%
%TO.N,SWD_IO*%
X182768636Y-98185760D03*
%TO.P,J6,3,Pin_3*%
%TO.N,SWD_SCK*%
X179268636Y-98185760D03*
%TO.P,J6,4,Pin_4*%
%TO.N,V_Reg*%
X175768636Y-98185760D03*
%TO.P,J6,5,Pin_5*%
%TO.N,V_Batt*%
X172268636Y-98185760D03*
%TO.P,J6,6,Pin_6*%
%TO.N,Step_EnConn*%
X168768636Y-98185760D03*
%TO.P,J6,7,Pin_7*%
%TO.N,Step_DirConn*%
X165268636Y-98185760D03*
%TO.P,J6,8,Pin_8*%
%TO.N,Step_PWMConn*%
X161768636Y-98185760D03*
%TO.P,J6,9,Pin_9*%
%TO.N,GND*%
X158268636Y-98185760D03*
%TD*%
D33*
%TO.N,+3V3*%
X165307949Y-114462079D03*
X168872947Y-114377198D03*
X132312892Y-109390327D03*
X186355941Y-110215237D03*
X147235532Y-106302131D03*
X117104492Y-114909528D03*
X182924856Y-114446396D03*
X125491434Y-109529481D03*
X130904817Y-114889230D03*
X137828517Y-97498486D03*
X186231217Y-95919453D03*
X120488250Y-97843799D03*
X116115833Y-110440947D03*
D34*
X119627885Y-92944194D03*
D33*
X113291646Y-97406674D03*
X147007781Y-109055856D03*
X123156799Y-94177981D03*
X114055444Y-108749584D03*
%TO.N,/Buzz_NPN*%
X147179259Y-94177981D03*
%TO.N,GND*%
X114659178Y-103712557D03*
X135989899Y-92811316D03*
X188298311Y-95115817D03*
X158245985Y-95576981D03*
X165193430Y-92782836D03*
X154199647Y-89691948D03*
X130840847Y-109308546D03*
X118285822Y-106120073D03*
X125426609Y-99469377D03*
X132060514Y-89393618D03*
X121608119Y-111285680D03*
X170778517Y-92799863D03*
X132023848Y-98397552D03*
X125022533Y-91779760D03*
X109012454Y-107255804D03*
X156309079Y-113186655D03*
X112534907Y-95755608D03*
X125022965Y-94177981D03*
X140448347Y-99343374D03*
X119740615Y-89385853D03*
X123674899Y-109566178D03*
X114615689Y-96228622D03*
X117141916Y-108949442D03*
X145029475Y-106843140D03*
X127324689Y-112217370D03*
X139545764Y-112776634D03*
X116471763Y-97873551D03*
X143235854Y-98893075D03*
X116281365Y-108226213D03*
X124190046Y-111994652D03*
D34*
X114494129Y-93301325D03*
D33*
X124169314Y-103712557D03*
D34*
%TO.N,V_Reg*%
X114226300Y-94877481D03*
D33*
%TO.N,/NRST*%
X120591503Y-100986192D03*
%TO.N,/OSC_IN*%
X117958881Y-99435463D03*
%TO.N,/OSC_OUT*%
X119446816Y-101535101D03*
%TO.N,/VCAP*%
X130254312Y-108681072D03*
%TO.N,3V3A*%
X119622068Y-105144737D03*
%TO.N,/LED_Reg_C*%
X109166281Y-97352213D03*
%TO.N,/Status_LEDC*%
X135922972Y-106204839D03*
%TO.N,Net-(D3-Pad1)*%
X150969272Y-90936241D03*
%TO.N,USB_D-*%
X139279527Y-92432454D03*
X134952070Y-100090042D03*
%TO.N,USB_D+*%
X138580522Y-92406076D03*
X134952070Y-99390539D03*
%TO.N,SWD_IO*%
X159224709Y-101284772D03*
%TO.N,Extra_SDA*%
X165350389Y-108656225D03*
X133071492Y-108167828D03*
X130849421Y-105588182D03*
%TO.N,Extra_SCL*%
X133910407Y-109083214D03*
X167497876Y-108664713D03*
X131474576Y-105218363D03*
%TO.N,Altus_CS*%
X182932969Y-110119083D03*
%TO.N,Step_EN*%
X169859021Y-95576981D03*
X163134226Y-101800799D03*
X160412620Y-101872420D03*
%TO.N,Step_DIR*%
X163457612Y-96211860D03*
%TO.N,Step_PWM*%
X159242546Y-91471582D03*
%TO.N,Flash_CS*%
X124646312Y-114885343D03*
X127020858Y-114889230D03*
X117429822Y-110108349D03*
%TO.N,Buzz_PWM*%
X138126613Y-93624766D03*
%TO.N,ADC_Battery*%
X120329045Y-106471116D03*
%TO.N,Net-(R6-Pad2)*%
X117629800Y-113616355D03*
%TO.N,/Boot0*%
X126298586Y-92569380D03*
%TO.N,Flash_SCK*%
X120043456Y-111711423D03*
X124239450Y-105813996D03*
%TO.N,SD_MOSI*%
X148676247Y-105615992D03*
%TO.N,SD_SCK*%
X130529620Y-94177981D03*
%TO.N,SD_MISO*%
X129824237Y-94177981D03*
%TO.N,SD_CS*%
X128888982Y-94177981D03*
%TD*%
D35*
%TO.N,+3V3*%
X186268636Y-98185760D02*
X186268636Y-95956872D01*
X186268636Y-95956872D02*
X186231217Y-95919453D01*
D36*
X148320374Y-107743263D02*
X147007781Y-109055856D01*
D35*
X119617069Y-92955010D02*
X119627885Y-92944194D01*
D36*
X118656232Y-114909528D02*
X118695922Y-114869838D01*
X121928812Y-97884272D02*
X123853812Y-95959272D01*
X112119223Y-97404776D02*
X113289748Y-97404776D01*
X124853812Y-107309272D02*
X124853812Y-108891859D01*
X131353812Y-107309272D02*
X131353812Y-108431247D01*
X117104492Y-114909528D02*
X118656232Y-114909528D01*
D35*
X186361601Y-106389591D02*
X186361601Y-110209577D01*
D36*
X148320374Y-107464544D02*
X148320374Y-107743263D01*
X137442731Y-97884272D02*
X137828517Y-97498486D01*
X120528723Y-97884272D02*
X120488250Y-97843799D01*
X133278812Y-97884272D02*
X137442731Y-97884272D01*
X123853812Y-95959272D02*
X123853812Y-94874994D01*
D35*
X118245080Y-92955010D02*
X119617069Y-92955010D01*
D36*
X123853812Y-94874994D02*
X123156799Y-94177981D01*
X131353812Y-108431247D02*
X132312892Y-109390327D01*
X121928812Y-97884272D02*
X120528723Y-97884272D01*
X124853812Y-108891859D02*
X125491434Y-109529481D01*
X113289748Y-97404776D02*
X113291646Y-97406674D01*
X186361601Y-110209577D02*
X186355941Y-110215237D01*
%TO.N,/Buzz_NPN*%
X147179259Y-94177981D02*
X147179259Y-95123429D01*
X147179259Y-95123429D02*
X148320374Y-96264544D01*
%TO.N,GND*%
X130840847Y-109308546D02*
X130853812Y-109295581D01*
X137312258Y-91059857D02*
X137312258Y-91488957D01*
X126167157Y-111059838D02*
X125895922Y-111059838D01*
X125124860Y-111059838D02*
X124190046Y-111994652D01*
X124353812Y-108887265D02*
X124353812Y-107309272D01*
X127324689Y-112217370D02*
X126167157Y-111059838D01*
X117778198Y-101140139D02*
X116078198Y-102840139D01*
X130853812Y-109295581D02*
X130853812Y-107309272D01*
X133278812Y-98384272D02*
X132037128Y-98384272D01*
X116078198Y-103240139D02*
X115131596Y-103240139D01*
X137312258Y-91488957D02*
X135989899Y-92811316D01*
X120534695Y-103384272D02*
X118285822Y-105633145D01*
X158245985Y-98163109D02*
X158268636Y-98185760D01*
D35*
X115097814Y-93905010D02*
X114494129Y-93301325D01*
D36*
X121928812Y-103384272D02*
X120534695Y-103384272D01*
X158245985Y-95576981D02*
X158245985Y-98163109D01*
X124353812Y-94847134D02*
X125022965Y-94177981D01*
X116078198Y-102840139D02*
X116078198Y-103240139D01*
X123674899Y-109566178D02*
X124353812Y-108887265D01*
X132037128Y-98384272D02*
X132023848Y-98397552D01*
X115131596Y-103240139D02*
X114659178Y-103712557D01*
X117778198Y-101040139D02*
X117778198Y-101140139D01*
X124353812Y-95959272D02*
X124353812Y-94847134D01*
X125895922Y-111059838D02*
X125124860Y-111059838D01*
X118285822Y-105633145D02*
X118285822Y-106120073D01*
D35*
X115970080Y-93905010D02*
X115097814Y-93905010D01*
%TO.N,V_Reg*%
X115970080Y-94855010D02*
X116530429Y-94855010D01*
X117082100Y-93505563D02*
X116531547Y-92955010D01*
X115947609Y-94877481D02*
X115970080Y-94855010D01*
X116530429Y-94855010D02*
X117082100Y-94303339D01*
X114226300Y-94877481D02*
X115947609Y-94877481D01*
X116531547Y-92955010D02*
X115970080Y-92955010D01*
X117082100Y-94303339D02*
X117082100Y-93505563D01*
D36*
%TO.N,/NRST*%
X120591503Y-100986192D02*
X120693423Y-100884272D01*
X120693423Y-100884272D02*
X121928812Y-100884272D01*
%TO.N,/OSC_IN*%
X117958881Y-99435463D02*
X117582874Y-99435463D01*
X116078198Y-101040139D02*
X116078198Y-100940139D01*
X116078198Y-100940139D02*
X117134065Y-99884272D01*
X117582874Y-99435463D02*
X117134065Y-99884272D01*
X117134065Y-99884272D02*
X121928812Y-99884272D01*
%TO.N,/OSC_OUT*%
X119576738Y-100384272D02*
X121928812Y-100384272D01*
X118938842Y-102139355D02*
X118938842Y-101022168D01*
X117838058Y-103240139D02*
X118938842Y-102139355D01*
X118938842Y-101027127D02*
X118938842Y-101022168D01*
X117778198Y-103240139D02*
X117838058Y-103240139D01*
X119446816Y-101535101D02*
X118938842Y-101027127D01*
X118938842Y-101022168D02*
X119576738Y-100384272D01*
%TO.N,/VCAP*%
X130254312Y-108681072D02*
X130353812Y-108581572D01*
X130353812Y-108581572D02*
X130353812Y-107309272D01*
%TO.N,3V3A*%
X120882533Y-103884272D02*
X119622068Y-105144737D01*
X121928812Y-103884272D02*
X120882533Y-103884272D01*
D37*
%TO.N,/LED_Reg_C*%
X109166281Y-97352213D02*
X110191660Y-97352213D01*
D35*
X110191660Y-97352213D02*
X110244223Y-97404776D01*
D36*
%TO.N,/Status_LEDC*%
X136029568Y-106311435D02*
X135922972Y-106204839D01*
X137239183Y-106311435D02*
X136029568Y-106311435D01*
%TO.N,/Status_LED*%
X136291346Y-105384272D02*
X133278812Y-105384272D01*
X137239183Y-104436435D02*
X136291346Y-105384272D01*
%TO.N,Net-(D3-Pad1)*%
X150969272Y-90936241D02*
X149690773Y-90936241D01*
X149690773Y-90936241D02*
X149686104Y-90940910D01*
%TO.N,Net-(D3-Pad2)*%
X140072697Y-91884377D02*
X139912258Y-91723938D01*
X139912258Y-91723938D02*
X139912258Y-91059857D01*
X146867637Y-91884377D02*
X140072697Y-91884377D01*
X147811104Y-90940910D02*
X146867637Y-91884377D01*
%TO.N,USB_D-*%
X134597965Y-99884272D02*
X134703743Y-99990050D01*
X133278812Y-99884272D02*
X134597965Y-99884272D01*
X134852078Y-99990050D02*
X134952070Y-100090042D01*
X134703743Y-99990050D02*
X134852078Y-99990050D01*
X139279527Y-91077126D02*
X139262258Y-91059857D01*
X139279527Y-92432454D02*
X139279527Y-91077126D01*
%TO.N,USB_D+*%
X133278812Y-99384272D02*
X134945803Y-99384272D01*
X138580522Y-92406076D02*
X138580522Y-91091593D01*
X138580522Y-91091593D02*
X138612258Y-91059857D01*
X134945803Y-99384272D02*
X134952070Y-99390539D01*
%TO.N,unconnected-(J3-Pad6)*%
X136112258Y-89359857D02*
X135112258Y-88359857D01*
X135112258Y-88359857D02*
X141512258Y-88359857D01*
X141512258Y-88359857D02*
X141512258Y-90659857D01*
X136112258Y-91059857D02*
X136112258Y-89359857D01*
X141512258Y-90659857D02*
X141112258Y-91059857D01*
%TO.N,SWD_IO*%
X134610499Y-98884272D02*
X134703743Y-98791028D01*
X133278812Y-98884272D02*
X134610499Y-98884272D01*
X136461184Y-99904236D02*
X136461184Y-100794052D01*
X134703743Y-98791028D02*
X135347976Y-98791028D01*
X136951904Y-101284772D02*
X159224709Y-101284772D01*
X136461184Y-100794052D02*
X136951904Y-101284772D01*
X135347976Y-98791028D02*
X136461184Y-99904236D01*
%TO.N,SWD_SCK*%
X153782689Y-96225011D02*
X154219029Y-95788672D01*
X142200062Y-99737700D02*
X142692415Y-100230053D01*
X138683290Y-95959272D02*
X139416085Y-96692068D01*
X164966935Y-94724598D02*
X175807474Y-94724598D01*
X153683006Y-100230053D02*
X153782689Y-100130370D01*
X142692415Y-100230053D02*
X153683006Y-100230053D01*
X161114408Y-90872071D02*
X164966935Y-94724598D01*
X175807474Y-94724598D02*
X179268636Y-98185760D01*
X154219029Y-95788672D02*
X154219029Y-95647261D01*
X142200062Y-99476045D02*
X142200062Y-99737700D01*
X153782689Y-100130370D02*
X153782689Y-96225011D01*
X139416085Y-96692068D02*
X142200062Y-99476045D01*
X131353812Y-95959272D02*
X138683290Y-95959272D01*
X154219029Y-95647261D02*
X158994219Y-90872071D01*
X158994219Y-90872071D02*
X161114408Y-90872071D01*
%TO.N,Extra_Out*%
X132154292Y-103133431D02*
X132154292Y-105725780D01*
X133278812Y-102884272D02*
X132403451Y-102884272D01*
X140831932Y-107148455D02*
X144203537Y-103776850D01*
X132403451Y-102884272D02*
X132154292Y-103133431D01*
X132154292Y-105725780D02*
X133576967Y-107148455D01*
X159248860Y-103776850D02*
X161861601Y-106389591D01*
X144203537Y-103776850D02*
X159248860Y-103776850D01*
X133576967Y-107148455D02*
X140831932Y-107148455D01*
%TO.N,Extra_SDA*%
X133071492Y-108167828D02*
X140518987Y-108167828D01*
X149102547Y-104438835D02*
X151239586Y-106575873D01*
X165350389Y-106400803D02*
X165361601Y-106389591D01*
X144247980Y-104438835D02*
X146914739Y-104438835D01*
X146914739Y-104438835D02*
X149102547Y-104438835D01*
X165350389Y-108656225D02*
X153319938Y-108656225D01*
X140518987Y-108167828D02*
X144247980Y-104438835D01*
X126353812Y-101092573D02*
X130849421Y-105588182D01*
X165350389Y-108656225D02*
X165350389Y-106400803D01*
X151239586Y-106575873D02*
X153078541Y-108414828D01*
X126353812Y-95959272D02*
X126353812Y-101092573D01*
X153319938Y-108656225D02*
X153078541Y-108414828D01*
%TO.N,Extra_SCL*%
X140310029Y-109083214D02*
X144376762Y-105016481D01*
X150848060Y-107580384D02*
X153267062Y-109999386D01*
X126853812Y-100597599D02*
X131474576Y-105218363D01*
X126853812Y-95959272D02*
X126853812Y-100597599D01*
X144376762Y-105016481D02*
X148973766Y-105016481D01*
X167497876Y-107753316D02*
X168861601Y-106389591D01*
X133910407Y-109083214D02*
X140310029Y-109083214D01*
X166172688Y-109999386D02*
X167497876Y-108674198D01*
X167497876Y-108674198D02*
X167497876Y-108664713D01*
X153267062Y-109999386D02*
X166172688Y-109999386D01*
X167497876Y-108664713D02*
X167497876Y-107753316D01*
X148973766Y-105016481D02*
X150848060Y-106890775D01*
X150848060Y-106890775D02*
X150848060Y-107580384D01*
%TO.N,Altus_MOSI*%
X129467531Y-111004779D02*
X167746413Y-111004779D01*
X126853812Y-108391060D02*
X129467531Y-111004779D01*
X167746413Y-111004779D02*
X172361601Y-106389591D01*
X126853812Y-107309272D02*
X126853812Y-108391060D01*
%TO.N,Altus_MISO*%
X129290036Y-111533711D02*
X170717481Y-111533711D01*
X126353812Y-108597487D02*
X129290036Y-111533711D01*
X170717481Y-111533711D02*
X175861601Y-106389591D01*
X126353812Y-107309272D02*
X126353812Y-108597487D01*
%TO.N,Altus_SCK*%
X173717961Y-112033231D02*
X128950966Y-112033231D01*
X179361601Y-106389591D02*
X173717961Y-112033231D01*
X128950966Y-112033231D02*
X125853812Y-108936077D01*
X125853812Y-108936077D02*
X125853812Y-107309272D01*
%TO.N,Altus_CS*%
X166943627Y-110498906D02*
X170812090Y-106630443D01*
X170812090Y-105742416D02*
X171714426Y-104840080D01*
X171714426Y-104840080D02*
X181312090Y-104840080D01*
X182861601Y-106389591D02*
X182861601Y-110047715D01*
X129668085Y-110498906D02*
X166943627Y-110498906D01*
X127353812Y-107309272D02*
X127353812Y-108184633D01*
X181312090Y-104840080D02*
X182861601Y-106389591D01*
X182861601Y-110047715D02*
X182932969Y-110119083D01*
X170812090Y-106630443D02*
X170812090Y-105742416D01*
X127353812Y-108184633D02*
X129668085Y-110498906D01*
%TO.N,Step_EN*%
X170318147Y-98827590D02*
X170318147Y-96036107D01*
X170318147Y-96036107D02*
X169859021Y-95576981D01*
X167344938Y-101800799D02*
X170318147Y-98827590D01*
X163134226Y-101800799D02*
X167344938Y-101800799D01*
X160400768Y-101884272D02*
X160412620Y-101872420D01*
X133278812Y-101884272D02*
X160400768Y-101884272D01*
%TO.N,Step_DIR*%
X136939806Y-103196802D02*
X160188893Y-103196802D01*
X133278812Y-103884272D02*
X136252336Y-103884272D01*
X163457612Y-99928083D02*
X163457612Y-96211860D01*
X136252336Y-103884272D02*
X136939806Y-103196802D01*
X160188893Y-103196802D02*
X163457612Y-99928083D01*
%TO.N,Step_PWM*%
X127853812Y-96834633D02*
X128269338Y-97250159D01*
X138916565Y-96898975D02*
X141315086Y-99297496D01*
X154425936Y-96288192D02*
X154425936Y-100193551D01*
X137580190Y-96898975D02*
X138916565Y-96898975D01*
X154425936Y-96288192D02*
X159242546Y-91471582D01*
X127853812Y-95959272D02*
X127853812Y-96834633D01*
X141315086Y-99297496D02*
X141315086Y-100137761D01*
X153834235Y-100785252D02*
X141962577Y-100785252D01*
X137229006Y-97250159D02*
X137580190Y-96898975D01*
X154425936Y-100193551D02*
X153834235Y-100785252D01*
X141315086Y-100137761D02*
X141962577Y-100785252D01*
X128269338Y-97250159D02*
X137229006Y-97250159D01*
%TO.N,Flash_CS*%
X123053332Y-103133431D02*
X123053332Y-105635113D01*
X125880417Y-114885343D02*
X125895922Y-114869838D01*
X121928812Y-102884272D02*
X122804173Y-102884272D01*
X125915314Y-114889230D02*
X125895922Y-114869838D01*
X118580096Y-110108349D02*
X117429822Y-110108349D01*
X124646312Y-114885343D02*
X125880417Y-114885343D01*
X123053332Y-105635113D02*
X118580096Y-110108349D01*
X122804173Y-102884272D02*
X123053332Y-103133431D01*
X127020858Y-114889230D02*
X125915314Y-114889230D01*
%TO.N,Buzz_PWM*%
X132814839Y-94834752D02*
X133415248Y-95435161D01*
X136316218Y-95435161D02*
X138126613Y-93624766D01*
X130853812Y-95959272D02*
X130853812Y-95083911D01*
X130853812Y-95083911D02*
X131102971Y-94834752D01*
X131102971Y-94834752D02*
X132814839Y-94834752D01*
X133415248Y-95435161D02*
X136316218Y-95435161D01*
%TO.N,ADC_Battery*%
X121928812Y-104884272D02*
X121053451Y-104884272D01*
X120329045Y-105608678D02*
X120329045Y-106471116D01*
X121053451Y-104884272D02*
X120329045Y-105608678D01*
%TO.N,Net-(R6-Pad2)*%
X117629800Y-113616355D02*
X118679405Y-113616355D01*
X118679405Y-113616355D02*
X118695922Y-113599838D01*
%TO.N,/Boot0*%
X125853812Y-95959272D02*
X125853812Y-93014154D01*
X125853812Y-93014154D02*
X126298586Y-92569380D01*
%TO.N,Flash_MISO*%
X123075388Y-106681135D02*
X123075388Y-111732089D01*
X123559456Y-106197067D02*
X123075388Y-106681135D01*
X123075388Y-111732089D02*
X124943137Y-113599838D01*
X124943137Y-113599838D02*
X125895922Y-113599838D01*
X123010601Y-102384272D02*
X123559456Y-102933127D01*
X123559456Y-102933127D02*
X123559456Y-106197067D01*
X121928812Y-102384272D02*
X123010601Y-102384272D01*
%TO.N,Flash_MOSI*%
X115516322Y-110703133D02*
X115873027Y-111059838D01*
X115516322Y-107421401D02*
X115516322Y-110703133D01*
X121928812Y-101884272D02*
X121053451Y-101884272D01*
X121053451Y-101884272D02*
X115516322Y-107421401D01*
X115873027Y-111059838D02*
X118695922Y-111059838D01*
%TO.N,Flash_SCK*%
X119314337Y-111711423D02*
X118695922Y-112329838D01*
X120043456Y-111711423D02*
X119314337Y-111711423D01*
X129853812Y-106433911D02*
X129233897Y-105813996D01*
X129233897Y-105813996D02*
X124239450Y-105813996D01*
X129853812Y-107309272D02*
X129853812Y-106433911D01*
%TO.N,SD_MOSI*%
X128353812Y-107309272D02*
X128353812Y-108184633D01*
X144483679Y-105615992D02*
X148676247Y-105615992D01*
X128353812Y-108184633D02*
X130163404Y-109994225D01*
X130163404Y-109994225D02*
X140105446Y-109994225D01*
X140105446Y-109994225D02*
X144483679Y-105615992D01*
%TO.N,SD_SCK*%
X130353812Y-94877483D02*
X130353812Y-95959272D01*
X130529620Y-94701675D02*
X130353812Y-94877483D01*
X130529620Y-94177981D02*
X130529620Y-94701675D01*
%TO.N,SD_MISO*%
X129853812Y-94207556D02*
X129824237Y-94177981D01*
X129853812Y-95959272D02*
X129853812Y-94207556D01*
%TO.N,SD_CS*%
X128888982Y-94177981D02*
X128853812Y-94213151D01*
X128853812Y-94213151D02*
X128853812Y-95959272D01*
%TD*%
M02*
