<?xml version="1.0" encoding="UTF-8" standalone="no"?>
<!-- Created with Inkscape (http://www.inkscape.org/) -->

<svg
   xmlns:dc="http://purl.org/dc/elements/1.1/"
   xmlns:cc="http://creativecommons.org/ns#"
   xmlns:rdf="http://www.w3.org/1999/02/22-rdf-syntax-ns#"
   xmlns:svg="http://www.w3.org/2000/svg"
   xmlns="http://www.w3.org/2000/svg"
   xmlns:xlink="http://www.w3.org/1999/xlink"
   xmlns:sodipodi="http://sodipodi.sourceforge.net/DTD/sodipodi-0.dtd"
   xmlns:inkscape="http://www.inkscape.org/namespaces/inkscape"
   width="320"
   height="63"
   id="svg2"
   version="1.1"
   inkscape:version="0.48.3.1 r9886"
   sodipodi:docname="micropeak-oneline-font.svg">
  <defs
     id="defs4">
    <linearGradient
       id="linearGradient4151">
      <stop
         id="stop4153"
         offset="0"
         style="stop-color:#da7000;stop-opacity:1;" />
      <stop
         style="stop-color:#a63852;stop-opacity:1;"
         offset="0.15000001"
         id="stop4159" />
      <stop
         style="stop-color:#7200a4;stop-opacity:1;"
         offset="1"
         id="stop4157" />
    </linearGradient>
    <linearGradient
       id="linearGradient4141">
      <stop
         style="stop-color:#7200a4;stop-opacity:1;"
         offset="0"
         id="stop4143" />
      <stop
         id="stop4149"
         offset="0.5"
         style="stop-color:#7200a4;stop-opacity:0.49803922;" />
      <stop
         style="stop-color:#7200a4;stop-opacity:0;"
         offset="1"
         id="stop4145" />
    </linearGradient>
    <linearGradient
       id="linearGradient5343">
      <stop
         style="stop-color:#7200a4;stop-opacity:1;"
         offset="0"
         id="stop5345" />
      <stop
         style="stop-color:#da7000;stop-opacity:1;"
         offset="1"
         id="stop5347" />
    </linearGradient>
    <marker
       inkscape:stockid="Arrow2Send"
       orient="auto"
       refY="0"
       refX="0"
       id="Arrow2Send"
       style="overflow:visible">
      <path
         id="path3798"
         style="fill-rule:evenodd;stroke-width:0.625;stroke-linejoin:round"
         d="M 8.7185878,4.0337352 -2.2072895,0.01601326 8.7185884,-4.0017078 c -1.7454984,2.3720609 -1.7354408,5.6174519 -6e-7,8.035443 z"
         transform="matrix(-0.3,0,0,-0.3,0.69,0)"
         inkscape:connector-curvature="0" />
    </marker>
    <marker
       inkscape:stockid="Arrow1Send"
       orient="auto"
       refY="0"
       refX="0"
       id="Arrow1Send"
       style="overflow:visible">
      <path
         id="path3780"
         d="M 0,0 5,-5 -12.5,0 5,5 0,0 z"
         style="fill-rule:evenodd;stroke:#000000;stroke-width:1pt"
         transform="matrix(-0.2,0,0,-0.2,-1.2,0)"
         inkscape:connector-curvature="0" />
    </marker>
    <marker
       inkscape:stockid="Arrow2Mend"
       orient="auto"
       refY="0"
       refX="0"
       id="Arrow2Mend"
       style="overflow:visible">
      <path
         id="path3792"
         style="fill-rule:evenodd;stroke-width:0.625;stroke-linejoin:round"
         d="M 8.7185878,4.0337352 -2.2072895,0.01601326 8.7185884,-4.0017078 c -1.7454984,2.3720609 -1.7354408,5.6174519 -6e-7,8.035443 z"
         transform="scale(-0.6,-0.6)"
         inkscape:connector-curvature="0" />
    </marker>
    <marker
       inkscape:stockid="Arrow1Lend"
       orient="auto"
       refY="0"
       refX="0"
       id="Arrow1Lend"
       style="overflow:visible">
      <path
         id="path3768"
         d="M 0,0 5,-5 -12.5,0 5,5 0,0 z"
         style="fill-rule:evenodd;stroke:#000000;stroke-width:1pt"
         transform="matrix(-0.8,0,0,-0.8,-10,0)"
         inkscape:connector-curvature="0" />
    </marker>
    <marker
       inkscape:stockid="Arrow2Lend"
       orient="auto"
       refY="0"
       refX="0"
       id="Arrow2Lend"
       style="overflow:visible">
      <path
         id="path3786"
         style="fill-rule:evenodd;stroke-width:0.625;stroke-linejoin:round"
         d="M 8.7185878,4.0337352 -2.2072895,0.01601326 8.7185884,-4.0017078 c -1.7454984,2.3720609 -1.7354408,5.6174519 -6e-7,8.035443 z"
         transform="matrix(-1.1,0,0,-1.1,-1.1,0)"
         inkscape:connector-curvature="0" />
    </marker>
    <linearGradient
       inkscape:collect="always"
       xlink:href="#linearGradient5343"
       id="linearGradient5349"
       x1="255.48561"
       y1="275.90405"
       x2="280.61411"
       y2="275.90405"
       gradientUnits="userSpaceOnUse"
       gradientTransform="matrix(1.58566,0,0,1.58566,-141.69631,-171.10662)" />
    <linearGradient
       inkscape:collect="always"
       xlink:href="#linearGradient4151"
       id="linearGradient4147"
       x1="320.71625"
       y1="261.24799"
       x2="561.98907"
       y2="261.24799"
       gradientUnits="userSpaceOnUse"
       gradientTransform="matrix(0.98765434,0,0,0.98765434,6.9381316,3.6077944)" />
  </defs>
  <sodipodi:namedview
     id="base"
     pagecolor="#ffffff"
     bordercolor="#666666"
     borderopacity="1.0"
     inkscape:pageopacity="0.0"
     inkscape:pageshadow="2"
     inkscape:zoom="2.040214"
     inkscape:cx="63.523011"
     inkscape:cy="51.339868"
     inkscape:document-units="px"
     inkscape:current-layer="layer1"
     showgrid="false"
     inkscape:window-width="1871"
     inkscape:window-height="1383"
     inkscape:window-x="0"
     inkscape:window-y="160"
     inkscape:window-maximized="0"
     fit-margin-top="0"
     fit-margin-left="0"
     fit-margin-right="0"
     fit-margin-bottom="0" />
  <metadata
     id="metadata7">
    <rdf:RDF>
      <cc:Work
         rdf:about="">
        <dc:format>image/svg+xml</dc:format>
        <dc:type
           rdf:resource="http://purl.org/dc/dcmitype/StillImage" />
        <dc:title></dc:title>
      </cc:Work>
    </rdf:RDF>
  </metadata>
  <g
     inkscape:label="Layer 1"
     inkscape:groupmode="layer"
     id="layer1"
     transform="translate(-241.9891,-229.23188)">
    <g
       style="font-size:57.89221573px;font-style:normal;font-variant:normal;font-weight:500;font-stretch:normal;text-align:start;line-height:125%;letter-spacing:0px;word-spacing:0px;writing-mode:lr-tb;text-anchor:start;fill:#7200a4;fill-opacity:1;stroke:none;font-family:ITC Benguiat Gothic Std;-inkscape-font-specification:ITC Benguiat Gothic Std Medium"
       id="text2985">
      <path
         d="m 266.5354,253.96513 c 0,-1.73676 -0.63682,-3.01039 -2.54726,-3.01039 -1.91044,0 -2.54726,1.27363 -2.54726,3.01039 l 0,13.95203 c 0,4.63137 -3.29986,8.22069 -7.75755,8.22069 -4.92084,0 -6.59972,-3.0104 -6.59972,-8.1628 l 0,-14.00992 c 0,-1.73676 -0.63681,-3.01039 -2.54725,-3.01039 -1.91044,0 -2.54726,1.27363 -2.54726,3.01039 l 0,35.25636 c 0,1.73677 0.63682,3.0104 2.54726,3.0104 1.91044,0 2.54725,-1.27363 2.54725,-3.0104 l 0,-9.89957 c 1.27363,0.98417 3.35775,1.56309 5.73133,1.56309 3.7051,0 7.12075,-1.27363 9.08908,-4.80505 l 0.11579,0.11578 0,2.02623 c 0,1.38941 0.86838,2.31569 2.25779,2.31569 1.38941,0 2.2578,-0.92628 2.2578,-2.31569 l 0,-24.25684"
         style="line-height:125%;fill:#7200a4;font-family:ITC Benguiat Gothic Std;-inkscape-font-specification:ITC Benguiat Gothic Std Medium"
         id="path4162" />
    </g>
    <path
       style="fill:none;stroke:url(#linearGradient5349);stroke-width:4.59841394;stroke-linecap:round;stroke-linejoin:miter;stroke-miterlimit:4;stroke-opacity:1;stroke-dasharray:none;marker-end:none"
       d="m 265.7162,289.84993 c 4.82076,-0.38711 6.82338,-4.23263 8.53511,-8.82584 2.66483,-7.15075 5.82277,-25.16291 13.67197,-32.59367 6.44857,-6.10479 13.03975,-5.49679 13.03975,-5.49679"
       id="path2991"
       inkscape:connector-curvature="0"
       sodipodi:nodetypes="cssc" />
    <path
       sodipodi:type="star"
       style="fill:none;stroke:#da7000;stroke-width:1.10000002;stroke-linecap:round;stroke-linejoin:miter;stroke-miterlimit:4;stroke-opacity:1;stroke-dasharray:none"
       id="path5341"
       sodipodi:sides="5"
       sodipodi:cx="279.29056"
       sodipodi:cy="261.05426"
       sodipodi:r1="7.2514729"
       sodipodi:r2="3.6257365"
       sodipodi:arg1="1.0731354"
       sodipodi:arg2="1.7014539"
       inkscape:flatsided="false"
       inkscape:rounded="0"
       inkscape:randomized="0"
       d="m 282.7522,267.42614 -3.93403,-2.77705 -4.51792,1.66641 1.42544,-4.59964 -2.98096,-3.78185 4.815,-0.0657 2.67559,-4.00372 1.55039,4.55904 4.63457,1.30742 -3.85681,2.88333 z"
       inkscape:transform-center-x="-0.46292579"
       inkscape:transform-center-y="-0.64836539"
       transform="matrix(1.58566,0,0,1.58566,-141.69632,-171.10662)" />
    <g
       style="font-size:54.73445892px;font-style:normal;font-variant:normal;font-weight:500;font-stretch:normal;text-align:start;line-height:125%;letter-spacing:0px;word-spacing:0px;writing-mode:lr-tb;text-anchor:start;fill:url(#linearGradient4147);fill-opacity:1;stroke:none;font-family:ITC Benguiat Gothic Std;-inkscape-font-specification:ITC Benguiat Gothic Std Medium"
       id="text5351">
      <path
         d="m 339.95106,263.95674 c 3.3388,0 8.26491,-10.67322 9.46907,-13.30048 l 0.10947,0 c 1.64203,8.97645 1.86097,18.06238 1.86097,26.54622 0,2.13464 0.60208,3.3388 2.40831,3.3388 1.64203,0 2.40832,-1.31363 2.40832,-3.3388 0,-7.44388 -1.4231,-23.6453 -2.90093,-30.37763 -0.38314,-1.86097 -1.36836,-4.26929 -3.1746,-4.26929 -3.06512,0 -4.32402,7.17023 -10.18061,15.38039 -5.85658,-8.21016 -7.11548,-15.38039 -10.1806,-15.38039 -1.80624,0 -2.79146,2.40832 -3.1746,4.26929 -1.47783,6.73233 -2.90093,22.93375 -2.90093,30.37763 0,2.02517 0.76628,3.3388 2.40832,3.3388 1.80623,0 2.40831,-1.20416 2.40831,-3.3388 0,-8.48384 0.21894,-17.56977 1.80624,-26.54622 l 0.10947,0 c 1.25889,2.62726 6.185,13.30048 9.52379,13.30048"
         style=""
         id="path4165" />
      <path
         d="m 368.22997,255.25396 c 0,-1.64203 -0.60209,-2.84619 -2.40832,-2.84619 -1.80624,0 -2.40832,1.20416 -2.40832,2.84619 l 0,22.44113 c 0,1.64203 0.60208,2.84619 2.40832,2.84619 1.80623,0 2.40832,-1.20416 2.40832,-2.84619 l 0,-22.44113 m -2.40832,-12.20579 c -1.7515,0 -2.57252,1.53257 -2.57252,3.1746 0,1.64203 0.82102,3.1746 2.57252,3.1746 1.7515,0 2.57252,-1.53257 2.57252,-3.1746 0,-1.64203 -0.82102,-3.1746 -2.57252,-3.1746"
         style=""
         id="path4167" />
      <path
         d="m 391.19962,275.88885 c -6.67759,0 -11.98684,-4.15983 -11.98684,-11.49424 0,-5.0903 2.79146,-7.66282 9.57853,-7.66282 l 6.23973,0 c 1.47782,0 2.46305,-0.65682 2.46305,-2.07991 0,-1.4231 -0.98523,-2.07991 -2.46305,-2.07991 l -9.30486,0 c -7.17021,0 -11.65844,5.03558 -11.65844,11.65844 0,9.96166 8.26491,16.14667 15.70879,16.14667 l 6.5134,0 c 1.53256,0 2.62725,-0.71155 2.62725,-2.24412 0,-1.53256 -1.09469,-2.24411 -2.62725,-2.24411 l -5.09031,0"
         style=""
         id="path4169" />
      <path
         d="m 403.02227,277.69509 c 0,1.64203 0.60208,2.84619 2.40831,2.84619 1.80624,0 2.40832,-1.20416 2.40832,-2.84619 l 0,-14.50463 c 0,-4.26929 3.39354,-6.45867 7.38915,-6.45867 1.7515,0 2.46305,-0.82102 2.46305,-2.35358 0,-1.5873 -1.03995,-2.13465 -2.84619,-2.13465 -3.503,0 -5.85659,1.31363 -6.89654,4.7619 l -0.10947,0 0,-1.5873 c 0,-1.64203 -0.60208,-2.84619 -2.40832,-2.84619 -1.80623,0 -2.40831,1.20416 -2.40831,2.84619 l 0,22.27693"
         style=""
         id="path4171" />
      <path
         d="m 431.7801,276.54566 c -4.98083,0 -8.31964,-4.7619 -8.31964,-10.07114 0,-5.30923 3.33881,-10.07114 8.31964,-10.07114 5.03556,0 8.37437,4.76191 8.37437,10.07114 0,5.30924 -3.33881,10.07114 -8.37437,10.07114 m 0,4.15982 c 7.44388,0 13.191,-6.185 13.191,-14.28569 0,-7.55335 -5.74712,-14.17623 -13.191,-14.17623 -7.44388,0 -13.13627,6.62288 -13.13627,14.17623 0,8.10069 5.69239,14.28569 13.13627,14.28569"
         style=""
         id="path4173" />
      <path
         d="m 456.22673,263.84727 c 6.73233,-2.40832 21.18224,-5.03558 21.18224,-14.6141 0,-4.37875 -3.50301,-6.5134 -7.82703,-6.5134 l -15.92773,0 c -1.69677,0 -2.24411,1.09469 -2.24411,2.62725 l 0,32.34807 c 0,1.69676 0.76628,2.84619 2.40831,2.84619 1.64204,0 2.40832,-1.14943 2.40832,-2.84619 l 0,-13.84782 m 12.47946,-16.63928 c 1.9157,0 3.3388,0.65682 3.3388,2.79146 0,4.9261 -10.29009,6.62287 -15.81826,8.92172 l 0,-11.71318 12.47946,0"
         style=""
         id="path4175" />
      <path
         d="m 485.16159,263.08099 c 0.71154,-3.50301 3.22934,-6.67761 8.48384,-6.67761 4.43348,0 7.22495,2.8462 7.44388,6.67761 l -15.92772,0 m 18.06237,3.72194 c 2.62725,0 2.68199,-0.60208 2.68199,-2.90093 0,-6.89653 -5.41872,-11.65844 -12.20579,-11.65844 -8.15542,0 -13.90255,5.58293 -13.90255,13.79309 0,9.63325 6.07553,14.34043 13.30047,14.34043 l 10.50902,0 c 1.47783,0 2.46305,-0.65682 2.46305,-2.07991 0,-1.4231 -0.98522,-2.07991 -2.46305,-2.07991 l -10.39955,0 c -4.48822,0 -8.64804,-3.06514 -8.2649,-9.41433 l 18.28131,0"
         style=""
         id="path4177" />
      <path
         d="m 527.28745,270.52487 c 0,4.7619 -2.68199,6.45867 -7.22495,6.45867 -4.10508,0 -6.45867,-1.47783 -6.45867,-4.7619 0,-5.14503 7.38916,-6.6776 13.68362,-6.6776 l 0,4.98083 m -4.43349,-13.46467 c 3.3388,0 4.43349,0.76628 4.43349,3.11986 l 0,1.64203 c -7.06074,0.43788 -18.50025,1.0947 -18.50025,10.61849 0,5.19977 4.4335,8.2649 10.50902,8.2649 3.72194,0 5.47345,-0.98522 8.31964,-3.11986 0,1.7515 0.71155,2.79146 2.24411,2.79146 1.53256,0 2.24411,-1.03996 2.24411,-2.79146 l 0,-15.16145 c 0,-4.87136 -1.31363,-9.8522 -8.53857,-9.8522 l -10.12588,0 c -1.5873,0 -2.62725,0.71155 -2.62725,2.24411 0,1.53257 1.03995,2.24412 2.62725,2.24412 l 9.41433,0"
         style=""
         id="path4179" />
      <path
         d="m 538.94589,277.69509 c 0,1.64203 0.60208,2.84619 2.40832,2.84619 1.80623,0 2.40832,-1.20416 2.40832,-2.84619 l 0,-13.40995 c 9.14064,1.2589 12.09631,4.15983 13.40994,13.46468 0.21894,1.53256 0.43788,2.79146 2.35358,2.79146 1.5873,0 2.46305,-0.82102 2.46305,-2.57252 0,-6.23972 -3.22934,-13.40995 -9.57853,-15.32565 l 0,-0.10947 c 3.06513,-1.03995 7.49862,-4.5977 7.49862,-8.15543 0,-1.20416 -0.82102,-2.18938 -1.7515,-2.18938 -1.80624,0 -2.18938,1.25889 -3.94088,3.72194 -1.97044,2.90093 -5.69239,4.87137 -9.30486,4.87137 l -1.14942,0 0,-15.38038 c 0,-1.64204 -0.60209,-2.8462 -2.40832,-2.8462 -1.80624,0 -2.40832,1.20416 -2.40832,2.8462 l 0,32.29333"
         style=""
         id="path4181" />
    </g>
  </g>
</svg>
